<svg width="40" height="40" viewBox="0 0 40 40" fill="none" xmlns="http://www.w3.org/2000/svg">
<path d="M30.6338 10.1189L20.4276 6.05591C20.1488 5.97702 19.85 5.97702 19.5015 6.0855L9.43466 10.0992C8.83722 10.2668 8.38914 10.7895 8.30948 11.4107C8.26965 11.7165 7.31374 18.9844 8.97662 24.4773C9.07619 24.8028 9.37491 25 9.69355 25C9.76325 25 9.83295 24.9901 9.91261 24.9704C10.3109 24.8521 10.53 24.4379 10.4105 24.0533C8.83722 18.8562 9.75329 11.9038 9.79312 11.608C9.80308 11.5587 9.83295 11.5291 9.92257 11.4995L19.9994 7.47598L30.1559 11.5192C30.1858 11.5291 30.2156 11.5587 30.2156 11.608C30.2555 11.9038 31.1715 18.8267 29.6082 24.0237C29.4887 24.4182 29.7178 24.8225 30.1061 24.9408C30.4944 25.0592 30.9126 24.8324 31.0321 24.4478C32.6851 18.9549 31.7291 11.7165 31.6893 11.4107C31.6097 10.7895 31.1715 10.2668 30.6338 10.1189Z" fill="#E4002B"/>
<path d="M20.0002 20C22.7526 20 25.0002 17.7619 25.0002 15C25.0002 12.2381 22.7526 10 20.0002 10C17.2478 10 15.0002 12.2381 15.0002 15C15.0002 17.7619 17.2383 20 20.0002 20ZM20.0002 11.4286C21.9716 11.4286 23.5716 13.0286 23.5716 15C23.5716 16.9714 21.9716 18.5714 20.0002 18.5714C18.0288 18.5714 16.4288 16.9714 16.4288 15C16.4288 13.0286 18.0288 11.4286 20.0002 11.4286Z" fill="#0F1E57"/>
<path d="M19.99 21.7593C15.9421 21.7593 12.4546 23.9361 10.7835 27.0949C14.3644 31.9345 19.5748 33.1798 19.7928 33.2305C19.8551 33.2507 19.9277 33.2507 19.99 33.2507C20.0627 33.2507 20.1249 33.2406 20.1872 33.2305C20.4052 33.1798 25.6156 31.9345 29.1965 27.0949C27.5254 23.9361 24.038 21.7593 19.99 21.7593Z" fill="#E5EAFF"/>
<path d="M19.9898 21C15.7654 21 11.9769 23.197 10.0879 26.7407C9.95296 26.9938 9.97372 27.2975 10.1502 27.5304C13.9075 32.6028 19.3774 33.9089 19.6161 33.9595C19.7407 33.9899 19.8653 34 20.0002 34C20.1247 34 20.2597 33.9899 20.3842 33.9595C20.6126 33.9089 26.0929 32.6028 29.8502 27.5304C30.0266 27.2975 30.0474 26.9938 29.9125 26.7407C28.0027 23.197 24.2142 21 19.9898 21ZM19.9898 32.4914C19.9794 32.4914 19.969 32.4914 19.969 32.4914C19.7615 32.4408 15.1115 31.3372 11.7071 27.0343C13.3885 24.2399 16.5231 22.5187 19.9898 22.5187C23.4565 22.5187 26.5911 24.2399 28.2725 27.0343C24.8681 31.3372 20.2182 32.4408 19.9898 32.4914Z" fill="#0F1E57"/>
<path d="M34.2887 7.24483L20.5021 2.06543C20.1743 1.97509 19.8261 1.97509 19.4266 2.08551L5.78333 7.21472C5.0561 7.40543 4.52348 8.00769 4.42105 8.73039C4.33911 9.2925 2.47494 22.6525 7.30949 29.4179C12.1236 36.1531 19.2525 37.8795 19.5597 37.9498C19.7031 37.9799 19.8568 38 20.0002 38C20.1436 38 20.2972 37.9799 20.4406 37.9498C20.7377 37.8795 27.8768 36.143 32.6909 29.4179C37.5254 22.6525 35.6613 9.2925 35.5793 8.73039C35.4769 8.00769 34.934 7.41547 34.2887 7.24483ZM31.431 28.5546C26.9447 34.8281 20.3587 36.4241 20.0821 36.4944L20.0002 36.5144L19.9182 36.4944C19.6417 36.4341 13.0556 34.8281 8.56934 28.5546C4.0728 22.2711 5.86527 9.48321 5.93697 8.94118C5.95745 8.81069 6.04964 8.71032 6.25449 8.65009L19.8978 3.52088C19.9592 3.50081 20.0309 3.50081 20.0207 3.50081L33.8073 8.67017C33.9405 8.71032 34.0327 8.81069 34.0532 8.94118C34.1351 9.48321 35.9173 22.2711 31.431 28.5546Z" fill="#0F1E57"/>
</svg>
