<svg width="40" height="40" viewBox="0 0 40 40" fill="none" xmlns="http://www.w3.org/2000/svg">
<path d="M20.0002 12C16.6902 12 14.0002 14.2212 14.0002 16.9694V20.8V23.0306C14.0002 25.7788 16.6902 28 20.0002 28C23.3102 28 26.0002 25.7788 26.0002 23.0306V19.2094V16.9694C26.0002 14.2306 23.3102 12 20.0002 12Z" fill="#E5EAFF"/>
<path d="M10.2001 4H4.70013C4.29013 4 3.95013 4.34 3.95013 4.75V10.25C3.95013 10.66 4.29013 11 4.70013 11C5.11013 11 5.45013 10.66 5.45013 10.25V5.5H10.2001C10.6101 5.5 10.9501 5.16 10.9501 4.75C10.9501 4.34 10.6101 4 10.2001 4Z" fill="#E4002B"/>
<path d="M10.2003 34.5H5.45026V29.75C5.45026 29.34 5.11026 29 4.70026 29C4.29026 29 3.95026 29.34 3.95026 29.75V35.25C3.95026 35.66 4.29026 36 4.70026 36H10.2003C10.6103 36 10.9503 35.66 10.9503 35.25C10.9503 34.84 10.6103 34.5 10.2003 34.5Z" fill="#E4002B"/>
<path d="M35.1902 29.0098C34.7802 29.0098 34.4402 29.3498 34.4402 29.7598V34.5098H29.6902C29.2802 34.5098 28.9402 34.8498 28.9402 35.2598C28.9402 35.6698 29.2802 36.0098 29.6902 36.0098H35.1902C35.6002 36.0098 35.9402 35.6698 35.9402 35.2598V29.7598C35.9402 29.3398 35.6102 29.0098 35.1902 29.0098Z" fill="#E4002B"/>
<path d="M35.1902 4H29.6902C29.2802 4 28.9402 4.34 28.9402 4.75C28.9402 5.16 29.2802 5.5 29.6902 5.5H34.4402V10.25C34.4402 10.66 34.7802 11 35.1902 11C35.6002 11 35.9402 10.66 35.9402 10.25V4.75C35.9402 4.34 35.6102 4 35.1902 4Z" fill="#E4002B"/>
<path d="M29.3002 19.98C28.8902 19.98 28.5502 20.32 28.5502 20.73V23.07C28.5502 27.72 24.7402 31.5 20.0502 31.5C15.3602 31.5 11.5002 27.72 11.5002 23.07V22.73C11.5002 22.32 11.1602 21.98 10.7502 21.98C10.3402 21.98 10.0002 22.32 10.0002 22.73V23.07C10.0002 28.55 14.5402 33 20.0502 33C25.5602 33 30.0502 28.54 30.0502 23.07V20.73C30.0502 20.32 29.7202 19.98 29.3002 19.98Z" fill="#0F1E57"/>
<path d="M20.0002 7.04C14.4902 7.04 10.0002 11.5 10.0002 16.97V19.25C10.0002 19.66 10.3402 20 10.7502 20C11.1602 20 11.5002 19.66 11.5002 19.25V16.97C11.5002 12.32 15.3102 8.54 20.0002 8.54C25.1602 8.54 28.5002 11.97 28.5002 17.27C28.5002 17.68 28.8402 18.02 29.2502 18.02C29.6602 18.02 30.0002 17.68 30.0002 17.27C29.9902 11.16 25.9802 7.04 20.0002 7.04Z" fill="#0F1E57"/>
<path d="M14.0002 23.0866C14.0002 26.3499 16.6912 29 20.0002 29C23.3092 29 26.0002 26.3499 26.0002 23.0866C26.0002 22.6605 25.6613 22.3072 25.2527 22.3072C24.844 22.3072 24.5052 22.6605 24.5052 23.0866C24.5052 25.4873 22.4819 27.4411 20.0002 27.4411C17.5185 27.4411 15.4952 25.4873 15.4952 23.0866V20.7794C15.4952 20.3533 15.1563 20 14.7477 20C14.3391 20 14.0002 20.3533 14.0002 20.7794V23.0866Z" fill="#0F1E57"/>
<path d="M25.2527 20C25.6613 20 26.0002 19.6467 26.0002 19.2206V16.9134C26.0002 13.6501 23.3092 11 20.0002 11C16.6912 11 14.0002 13.6501 14.0002 16.9134C14.0002 17.3395 14.3391 17.6928 14.7477 17.6928C15.1563 17.6928 15.4952 17.3395 15.4952 16.9134C15.4952 14.5127 17.5185 12.5589 20.0002 12.5589C22.4819 12.5589 24.5052 14.5127 24.5052 16.9134V19.2206C24.5052 19.657 24.8341 20 25.2527 20Z" fill="#0F1E57"/>
<path d="M19.3201 16.8163V23.1837C19.3201 23.6299 19.6601 24 20.0701 24C20.4801 24 20.8201 23.6299 20.8201 23.1837V16.8163C20.8201 16.3701 20.4801 16 20.0701 16C19.6601 16 19.3201 16.3592 19.3201 16.8163Z" fill="#0F1E57"/>
</svg>
