<svg width="40" height="40" viewBox="0 0 40 40" fill="none" xmlns="http://www.w3.org/2000/svg">
<path d="M23.2202 7.75C23.2102 7.75 23.2102 7.75 23.2202 7.75L10.7502 7.78999C10.3402 7.78999 10.0002 8.12999 10.0002 8.53999C10.0002 8.94999 10.3402 9.28999 10.7502 9.28999L23.2102 9.25C23.6202 9.25 23.9602 8.91 23.9602 8.5C23.9602 8.09 23.6302 7.75 23.2202 7.75Z" fill="#E4002B"/>
<path d="M13.1604 21.6499L10.7404 21.6899C10.3304 21.6999 9.9904 22.0399 10.0004 22.4499C10.0104 22.8599 10.3404 23.1899 10.7504 23.1899H10.7604L13.1804 23.1499C13.5904 23.1399 13.9304 22.7999 13.9204 22.3899C13.9104 21.9699 13.5704 21.6699 13.1604 21.6499Z" fill="#E4002B"/>
<path d="M16.2002 14.77L10.7502 14.81C10.3402 14.81 10.0002 15.15 10.0002 15.56C10.0002 15.97 10.3402 16.31 10.7502 16.31L16.2002 16.27C16.6102 16.27 16.9502 15.93 16.9502 15.52C16.9502 15.11 16.6102 14.77 16.2002 14.77Z" fill="#E4002B"/>
<path d="M30.114 25.9876C31.6802 22.2066 29.8847 17.8719 26.1037 16.3057C22.3227 14.7395 17.988 16.535 16.4218 20.316C14.8556 24.097 16.6511 28.4317 20.4321 29.9979C24.2131 31.5641 28.5478 29.7686 30.114 25.9876Z" fill="#E5EAFF"/>
<path d="M31.0002 23.0049C31.0002 18.5904 27.4097 15 23.0051 15C18.5906 15 15.0002 18.5904 15.0002 23.0049C15.0002 27.4194 18.5906 31 23.0051 31C27.4097 31 31.0002 27.4194 31.0002 23.0049ZM22.9953 29.5285C19.395 29.5285 16.4619 26.5953 16.4619 23.0049C16.4619 19.4047 19.395 16.4715 22.9953 16.4715C26.5955 16.4715 29.5189 19.4047 29.5189 23.0049C29.5287 26.6052 26.5955 29.5285 22.9953 29.5285Z" fill="#0F1E57"/>
<path d="M31.8417 28.2373C31.3057 27.7708 30.5016 27.8006 29.9954 28.2969L28.4172 29.8751C27.9209 30.3714 27.8911 31.1854 28.3576 31.7114L32.9832 37.002C32.9931 37.0119 33.003 37.0318 33.0129 37.0417C33.5688 37.5976 34.3033 37.9053 35.0875 37.9053C35.8716 37.9053 36.6161 37.5976 37.162 37.0417C37.7179 36.4859 38.0256 35.7513 38.0256 34.9672C38.0256 34.183 37.7179 33.4386 37.1223 32.8529L31.8417 28.2373ZM36.1198 36.0094C35.5739 36.5553 34.6309 36.5553 34.0849 36.0293L29.5686 30.8578L30.9682 29.4582L36.1297 33.9646C36.4076 34.2426 36.5565 34.5999 36.5565 34.987C36.5565 35.3741 36.3977 35.7315 36.1198 36.0094Z" fill="#0F1E57"/>
<path d="M7.50018 7C6.67018 7 6.00018 7.67 6.00018 8.5C6.00018 9.33 6.67018 10 7.50018 10C8.33018 10 9.00018 9.33 9.00018 8.5C9.00018 7.67 8.33018 7 7.50018 7Z" fill="#0F1E57"/>
<path d="M7.50018 24C8.32861 24 9.00018 23.3284 9.00018 22.5C9.00018 21.6716 8.32861 21 7.50018 21C6.67176 21 6.00018 21.6716 6.00018 22.5C6.00018 23.3284 6.67176 24 7.50018 24Z" fill="#0F1E57"/>
<path d="M7.50018 17C8.32861 17 9.00018 16.3284 9.00018 15.5C9.00018 14.6716 8.32861 14 7.50018 14C6.67176 14 6.00018 14.6716 6.00018 15.5C6.00018 16.3284 6.67176 17 7.50018 17Z" fill="#0F1E57"/>
<path d="M13.2137 27.4905H5.86587C4.57395 27.4905 3.51416 26.454 3.51416 25.186V5.81401C3.51416 4.54602 4.56385 3.5095 5.86587 3.5095H24.1345C25.4264 3.5095 26.4862 4.54602 26.4862 5.81401V12.2546C26.4862 12.6672 26.8294 13.0093 27.2432 13.0093C27.657 13.0093 28.0002 12.6672 28.0002 12.2546V5.81401C28.0002 3.71076 26.2642 2 24.1345 2H5.86587C3.73621 2 2.00018 3.71076 2.00018 5.81401V25.186C2.00018 27.2892 3.73621 29 5.86587 29H13.2137C13.6275 29 13.9707 28.6578 13.9707 28.2452C13.9707 27.8326 13.6376 27.4905 13.2137 27.4905Z" fill="#0F1E57"/>
</svg>
