<svg width="40" height="40" viewBox="0 0 40 40" fill="none" xmlns="http://www.w3.org/2000/svg">
<path d="M16.4302 18.1301C9.49016 17.8601 5.55018 24.6501 5.55018 24.6501L5.0202 25.9501C7.4202 29.2101 9.38016 29.2901 9.38016 29.2901C9.20016 27.2501 10.2202 27.2501 10.2202 27.2501H23.2302C24.5402 24.4201 27.3202 23.1101 27.3202 23.1101C23.2702 17.5001 16.4302 18.1301 16.4302 18.1301Z" fill="#E5EAFF"/>
<path d="M29.9823 22C26.8908 22 24.1184 23.7432 22.7821 26.4884H10.7454C9.78801 26.4884 9.00018 27.2699 9.00018 28.2317V31.7683C9.00018 32.7301 9.77804 33.5116 10.7454 33.5116H11.952V35.5855C11.952 36.5473 12.7299 37.3287 13.6972 37.3287H16.6989C17.6562 37.3287 18.4441 36.5473 18.4441 35.5855V33.5116H22.7821C24.1184 36.2567 26.9008 38 29.9823 38C34.4001 38 38.0002 34.4133 38.0002 29.995C38.0002 25.5767 34.4001 22 29.9823 22ZM29.9823 36.5072C27.3296 36.5072 24.9661 34.9242 23.9489 32.4796C23.8292 32.1991 23.56 32.0188 23.2609 32.0188H17.6961C17.2872 32.0188 16.9482 32.3594 16.9482 32.7702V35.5955C16.9482 35.7257 16.8385 35.8359 16.6989 35.8359H13.6972C13.5576 35.8359 13.4479 35.7257 13.4479 35.5955V32.7702C13.4479 32.3594 13.1088 32.0188 12.6999 32.0188H10.7454C10.6058 32.0188 10.4961 31.9086 10.4961 31.7783V28.2417C10.4961 28.1114 10.6058 28.0012 10.7454 28.0012H23.2609C23.56 28.0012 23.8392 27.8209 23.9489 27.5404C24.9561 25.0958 27.3296 23.5128 29.9823 23.5128C33.5823 23.5128 36.5043 26.4283 36.5043 30.015C36.5043 33.5917 33.5823 36.5072 29.9823 36.5072Z" fill="#E4002B"/>
<path d="M30.4601 16.96C30.4601 17.78 30.3901 18.6 30.2401 19.4C30.1601 19.81 30.4301 20.2 30.8401 20.27C31.2501 20.35 31.6401 20.08 31.7101 19.67C31.8701 18.78 31.9601 17.87 31.9601 16.96C31.9601 8.71001 25.2402 2 16.9802 2C8.72016 2 2.00018 8.71001 2.00018 16.96C2.00018 21.08 3.73012 25.06 6.74012 27.88C6.88012 28.01 7.07018 28.08 7.25018 28.08C7.45018 28.08 7.65018 28 7.80018 27.84C8.08018 27.54 8.07014 27.06 7.76014 26.78C7.38014 26.43 7.04014 26.06 6.71014 25.67C8.80014 21.91 12.7201 19.58 17.0401 19.58C19.7701 19.58 22.3302 20.48 24.4502 22.19C24.7702 22.45 25.2402 22.4 25.5002 22.08C25.7602 21.76 25.7101 21.29 25.3901 21.03C23.0401 19.14 20.0702 18.09 17.0502 18.09C12.4002 18.09 8.16012 20.47 5.74012 24.37C4.29012 22.19 3.50018 19.65 3.50018 16.95C3.50018 9.53 9.55016 3.49001 16.9802 3.49001C24.4102 3.49001 30.4601 9.54001 30.4601 16.96Z" fill="#0F1E57"/>
<path d="M11.4902 11.6301C11.4902 14.6601 13.9502 17.1201 16.9802 17.1201C20.0102 17.1201 22.4703 14.6601 22.4703 11.6301C22.4703 8.60013 20.0102 6.14014 16.9802 6.14014C13.9502 6.14014 11.4902 8.61013 11.4902 11.6301ZM20.9703 11.6301C20.9703 13.8301 19.1802 15.6201 16.9802 15.6201C14.7802 15.6201 12.9902 13.8301 12.9902 11.6301C12.9902 9.43013 14.7802 7.64014 16.9802 7.64014C19.1802 7.64014 20.9703 9.44013 20.9703 11.6301Z" fill="#0F1E57"/>
<path d="M30.0404 32.0801C31.1506 32.0801 32.0507 31.1847 32.0507 30.0801C32.0507 28.9755 31.1506 28.0801 30.0404 28.0801C28.9302 28.0801 28.0302 28.9755 28.0302 30.0801C28.0302 31.1847 28.9302 32.0801 30.0404 32.0801Z" fill="#0F1E57"/>
</svg>
