<svg width="24" height="24" viewBox="0 0 24 24" fill="none" xmlns="http://www.w3.org/2000/svg">
<path d="M8.75 6H7V9.5H8.75C9.7165 9.5 10.5 8.7165 10.5 7.75C10.5 6.7835 9.7165 6 8.75 6Z" fill="var(--color-blue-light, #dbe2ff)"/>
<path d="M8.75 9.5H7V13H8.75C9.7165 13 10.5 12.2165 10.5 11.25C10.5 10.2835 9.7165 9.5 8.75 9.5Z" fill="var(--color-blue-light, #dbe2ff)"/>
<path d="M15.75 6H14V9.5H15.75C16.7165 9.5 17.5 8.7165 17.5 7.75C17.5 6.7835 16.7165 6 15.75 6Z" fill="var(--color-blue-light, #dbe2ff)"/>
<path fill-rule="evenodd" clip-rule="evenodd" d="M7 5.5C6.72386 5.5 6.5 5.72386 6.5 6V13C6.5 13.2761 6.72386 13.5 7 13.5H8.75C9.99264 13.5 11 12.4926 11 11.25C11 10.5432 10.6741 9.91249 10.1643 9.5C10.6741 9.08751 11 8.45682 11 7.75C11 6.50736 9.99264 5.5 8.75 5.5H7ZM7.5 9H8.75C9.44036 9 10 8.44036 10 7.75C10 7.05964 9.44036 6.5 8.75 6.5H7.5V9ZM7.5 10V12.5H8.75C9.44036 12.5 10 11.9404 10 11.25C10 10.5596 9.44036 10 8.75 10H7.5Z" fill="var(--color-N600, #0f1e57)"/>
<path d="M12 5.5C12.2761 5.5 12.5 5.72386 12.5 6V13C12.5 13.2761 12.2761 13.5 12 13.5C11.7239 13.5 11.5 13.2761 11.5 13V6C11.5 5.72386 11.7239 5.5 12 5.5Z" fill="var(--color-N600, #0f1e57)"/>
<path fill-rule="evenodd" clip-rule="evenodd" d="M14 5.5C13.7239 5.5 13.5 5.72386 13.5 6V13C13.5 13.2761 13.7239 13.5 14 13.5C14.2761 13.5 14.5 13.2761 14.5 13V10H15.75C16.9926 10 18 8.99264 18 7.75C18 6.50736 16.9926 5.5 15.75 5.5H14ZM15.75 9H14.5V6.5H15.75C16.4404 6.5 17 7.05964 17 7.75C17 8.44036 16.4404 9 15.75 9Z" fill="var(--color-N600, #0f1e57)"/>
<path fill-rule="evenodd" clip-rule="evenodd" d="M2.5 4.2C2.5 3.26112 3.26112 2.5 4.2 2.5H19.8C20.7389 2.5 21.5 3.26112 21.5 4.2V12C21.5 12.2761 21.2761 12.5 21 12.5C20.7239 12.5 20.5 12.2761 20.5 12V4.2C20.5 3.8134 20.1866 3.5 19.8 3.5H4.2C3.8134 3.5 3.5 3.8134 3.5 4.2V13C3.5 13.2761 3.27614 13.5 3 13.5C2.72386 13.5 2.5 13.2761 2.5 13V4.2Z" fill="var(--color-N600, #0f1e57)"/>
<circle cx="4" cy="17.5" r="0.75" fill="var(--color-N600, #0f1e57)"/>
<path fill-rule="evenodd" clip-rule="evenodd" d="M21.3728 19.5C20.7389 20.4086 19.6882 21 18.5 21C17.4656 21 16.537 20.5525 15.8948 19.8374C15.4909 19.3875 14.8723 19 14.117 19H3.5C2.67157 19 2 18.3284 2 17.5C2 16.6716 2.67157 16 3.5 16H14.117C14.8723 16 15.4909 15.6125 15.8948 15.1626C16.537 14.4475 17.4656 14 18.5 14C19.6882 14 20.7389 14.5914 21.3728 15.5H19C17.8954 15.5 17 16.3954 17 17.5C17 18.6046 17.8954 19.5 19 19.5H21.3728ZM22.3181 19.8828C22.7263 19.2301 22.1556 18.5 21.3857 18.5H19C18.4477 18.5 18 18.0523 18 17.5C18 16.9477 18.4477 16.5 19 16.5H21.3857C22.1556 16.5 22.7263 15.7699 22.3181 15.1172C21.5229 13.8457 20.1102 13 18.5 13C17.1699 13 15.9746 13.5771 15.1508 14.4945C14.8832 14.7925 14.5174 15 14.117 15H3.5C2.11929 15 1 16.1193 1 17.5C1 18.8807 2.11929 20 3.5 20H14.117C14.5174 20 14.8832 20.2075 15.1508 20.5055C15.9746 21.4229 17.1699 22 18.5 22C20.1102 22 21.5229 21.1543 22.3181 19.8828Z" fill="var(--color-brand, #e4002b)"/>
</svg>
