<svg width="40" height="40" viewBox="0 0 40 40" fill="none" xmlns="http://www.w3.org/2000/svg">
<path d="M21.17 15C20.76 15 20.42 15.3532 20.42 15.7791V29.2209C20.42 29.6468 20.76 30 21.17 30C21.58 30 21.92 29.6468 21.92 29.2209V15.7791C21.92 15.3532 21.59 15 21.17 15Z" fill="#E4002B"/>
<path d="M30.21 26.97L27.44 25.56V17.75C27.44 17.34 27.1 17 26.69 17C26.28 17 25.94 17.34 25.94 17.75V26.02C25.94 26.3 26.1 26.56 26.35 26.69L29.53 28.31C29.64 28.37 29.76 28.39 29.87 28.39C30.14 28.39 30.41 28.24 30.54 27.98C30.72 27.6 30.58 27.15 30.21 26.97Z" fill="#E4002B"/>
<path d="M15.67 17C15.26 17 14.92 17.34 14.92 17.75V25.56L12.15 26.97C11.78 27.16 11.63 27.61 11.82 27.98C11.95 28.24 12.22 28.39 12.49 28.39C12.6 28.39 12.72 28.36 12.83 28.31L16.01 26.69C16.26 26.56 16.42 26.3 16.42 26.02V17.75C16.42 17.33 16.08 17 15.67 17Z" fill="#E4002B"/>
<path d="M37 17.7301C37 15.3178 35.5629 13.1135 33.376 12.0841C33.2823 8.93353 30.6478 6.39646 27.4196 6.39646C26.7323 6.39646 26.045 6.51086 25.3994 6.75001C24.2018 3.31872 20.9424 1 17.1623 1C12.5179 1 8.70658 4.58726 8.46707 9.08952C5.25972 10.0669 3 13.0303 3 16.368C3 20.5687 6.4781 23.9896 10.758 23.9896H11.06C11.487 23.9896 11.841 23.6361 11.841 23.2098C11.841 22.7834 11.487 22.4299 11.06 22.4299H10.758C7.34241 22.4299 4.56202 19.7161 4.56202 16.368C4.56202 13.5502 6.60306 11.0651 9.40428 10.4516C9.75834 10.3788 10.0187 9.92134 10.0187 9.55742C10.0187 5.69983 13.226 2.55967 17.1727 2.55967C20.4842 2.55967 23.4208 4.84719 24.1497 8.00813C24.2018 8.24728 24.3685 8.44483 24.5871 8.54881C24.8058 8.65279 25.0661 8.63201 25.2848 8.51764C25.9409 8.16411 26.6802 7.96655 27.43 7.96655C29.8563 7.96655 31.8349 9.90053 31.8349 12.2712C31.8349 12.3648 31.8349 12.4688 31.8245 12.5624C31.8037 12.9055 32.0119 13.2279 32.3347 13.3526C34.2091 14.0285 35.4587 15.7961 35.4587 17.7509C35.4587 20.34 34.0719 22.4403 31.4269 22.4403H31C30.573 22.4403 30.219 22.7938 30.219 23.2202C30.219 23.6465 30.573 24 31 24H31.4269C34.9154 23.9792 37 21.1718 37 17.7301Z" fill="#0F1E57"/>
<path d="M21 31.8198C19.2514 31.8198 17.8197 33.2406 17.8197 35.0002C17.8197 36.7488 19.2405 38.1805 21 38.1805C22.7487 38.1805 24.1804 36.7597 24.1804 35.0002C24.1804 33.2406 22.7487 31.8198 21 31.8198Z" fill="#E5EAFF"/>
<path d="M21 31C18.7924 31 17 32.7924 17 35C17 37.2076 18.7924 39 21 39C23.2076 39 25 37.2076 25 35C25 32.7924 23.2076 31 21 31ZM21 37.3497C19.6995 37.3497 18.6393 36.2896 18.6393 34.9891C18.6393 33.6885 19.6995 32.6284 21 32.6284C22.3005 32.6284 23.3607 33.6885 23.3607 34.9891C23.3607 36.2896 22.3005 37.3497 21 37.3497Z" fill="#0F1E57"/>
<path d="M34 32.2811C35.2598 32.2811 36.2812 31.2597 36.2812 29.9999C36.2812 28.7401 35.2598 27.7188 34 27.7188C32.7401 27.7188 31.7188 28.7401 31.7188 29.9999C31.7188 31.2597 32.7401 32.2811 34 32.2811Z" fill="#E5EAFF"/>
<path d="M34 27C32.3514 27 31 28.3419 31 30C31 31.6581 32.3418 33 34 33C35.6581 33 37 31.6581 37 30C37 28.3419 35.6581 27 34 27ZM34 31.5623C33.1374 31.5623 32.4377 30.8626 32.4377 30C32.4377 29.1374 33.1374 28.4377 34 28.4377C34.8626 28.4377 35.5623 29.1374 35.5623 30C35.5623 30.8626 34.8626 31.5623 34 31.5623Z" fill="#0F1E57"/>
<path d="M7.99997 32.2811C9.25981 32.2811 10.2811 31.2597 10.2811 29.9999C10.2811 28.7401 9.25981 27.7188 7.99997 27.7188C6.74013 27.7188 5.71884 28.7401 5.71884 29.9999C5.71884 31.2597 6.74013 32.2811 7.99997 32.2811Z" fill="#E5EAFF"/>
<path d="M7.99998 27C6.35142 27 5 28.3419 5 30C5 31.6581 6.34183 33 7.99998 33C9.65812 33 11 31.6581 11 30C11 28.3419 9.64854 27 7.99998 27ZM7.99998 31.5623C7.13736 31.5623 6.4377 30.8626 6.4377 30C6.4377 29.1374 7.13736 28.4377 7.99998 28.4377C8.8626 28.4377 9.5623 29.1374 9.5623 30C9.5623 30.8626 8.85301 31.5623 7.99998 31.5623Z" fill="#0F1E57"/>
</svg>
