<svg width="24" height="24" viewBox="0 0 24 24" fill="none" xmlns="http://www.w3.org/2000/svg">
<path d="M9 2.625C8.04375 2.625 7.2375 3.20625 6.9 4.05C6.675 3.975 6.43125 3.9375 6.1875 3.9375C4.8375 3.9375 3.75 5.025 3.75 6.375C3.75 6.375 3.75 6.375 3.75 6.39375C2.56875 6.65625 1.66875 7.70625 1.66875 8.9625C1.66875 9.3375 1.74375 9.69375 1.89375 10.0312C1.18125 10.6687 0.75 11.5875 0.75 12.5625C0.75 13.4437 1.0875 14.25 1.66875 14.8688C1.66875 15.4125 1.6875 16.2375 1.6875 16.3125C1.6875 18.0938 3.09375 19.575 4.85625 19.6875C5.41875 20.8312 6.58125 21.5625 7.875 21.5625C9.73125 21.5625 11.25 20.0438 11.25 18.1875V4.875C11.25 3.6375 10.2375 2.625 9 2.625ZM6.8625 12.5625C6.6 12.5625 6.375 12.75 6.31875 13.0125C6.1125 14.0437 5.19375 14.8125 4.10625 14.8125C3.675 14.8125 3.2625 14.6813 2.90625 14.4563C2.25 14.0438 1.85625 13.3312 1.85625 12.5625C1.85625 11.8312 2.2125 11.175 2.79375 10.7437H3.525C3.80625 10.7437 4.05 10.5562 4.10625 10.2937C4.18125 9.9375 3.9 9.61875 3.5625 9.61875H2.9625C2.85 9.4125 2.79375 9.1875 2.79375 8.94375C2.79375 8.2125 3.31875 7.6125 4.0125 7.48125C4.40625 8.25 5.19375 8.79375 6.1125 8.8125C6.43125 8.8125 6.7125 8.5875 6.73125 8.26875C6.75 7.95 6.4875 7.6875 6.16875 7.6875C5.5875 7.6875 5.08125 7.29375 4.9125 6.76875C4.89375 6.7125 4.875 6.65625 4.875 6.6C4.875 6.58125 4.875 6.58125 4.875 6.5625C4.875 6.50625 4.85625 6.45 4.85625 6.375C4.85625 5.64375 5.4375 5.0625 6.16875 5.0625C6.45 5.0625 6.73125 5.15625 6.95625 5.325C7.0875 5.41875 7.275 5.475 7.44375 5.41875C7.6875 5.34375 7.85625 5.11875 7.85625 4.875C7.85625 4.875 7.85625 4.875 7.85625 4.85625C7.85625 4.2 8.45625 3.65625 9.13125 3.75C9.69375 3.825 10.1063 4.33125 10.1063 4.9125V18.1125C10.1063 19.2 9.35625 20.175 8.30625 20.3813C7.18125 20.6063 6.1125 19.95 5.7375 18.9188C5.6625 18.675 5.41875 18.525 5.175 18.5438H5.11875C5.1 18.5438 5.0625 18.5438 5.04375 18.5438C3.80625 18.5438 2.79375 17.5312 2.79375 16.2938C2.79375 16.2563 2.79375 15.975 2.8125 15.6562C3.20625 15.825 3.65625 15.9188 4.10625 15.9188C5.7375 15.9188 7.10625 14.7562 7.425 13.2C7.5 12.8625 7.2375 12.5437 6.88125 12.5437H6.8625V12.5625Z" fill="var(--color-N600, #0f1e57)"/>
<path d="M6.8627 12.5623C6.6002 12.5623 6.37519 12.7498 6.31894 13.0123C6.11269 14.0436 5.19395 14.8123 4.10645 14.8123C3.6752 14.8123 3.2627 14.6811 2.90645 14.4561C2.2502 14.0436 1.85645 13.3311 1.85645 12.5623C1.85645 11.8311 2.2127 11.1748 2.79395 10.7436H3.5252C3.80645 10.7436 4.0502 10.5561 4.10645 10.2936C4.18145 9.93732 3.9002 9.61857 3.5627 9.61857H2.9627C2.8502 9.41232 2.79395 9.18732 2.79395 8.94357C2.79395 8.21232 3.31895 7.61232 4.0127 7.48107C4.40645 8.24982 5.19395 8.79357 6.1127 8.81232C6.43145 8.81232 6.71269 8.58732 6.73145 8.26857C6.75019 7.94982 6.48769 7.68732 6.16895 7.68732C5.58769 7.68732 5.08145 7.29357 4.9127 6.76857C4.89395 6.71232 4.8752 6.65607 4.8752 6.59982C4.8752 6.58107 4.8752 6.58107 4.8752 6.56232C4.8752 6.50607 4.85645 6.44982 4.85645 6.37482C4.85645 5.64357 5.4377 5.06232 6.16895 5.06232C6.4502 5.06232 6.73145 5.15607 6.95645 5.32482C7.0877 5.41857 7.27519 5.47482 7.44394 5.41857C7.68769 5.34357 7.85645 5.11857 7.85645 4.87482C7.85645 4.87482 7.85645 4.87482 7.85645 4.85607C7.85645 4.19982 8.45645 3.65607 9.13146 3.74982C9.69396 3.82482 10.1065 4.33107 10.1065 4.91232V18.1123C10.1065 19.1998 9.35646 20.1748 8.30645 20.3811C7.18145 20.6061 6.1127 19.9498 5.7377 18.9186C5.6627 18.6748 5.41895 18.5248 5.1752 18.5436H5.11895C5.1002 18.5436 5.0627 18.5436 5.04395 18.5436C3.80645 18.5436 2.79395 17.5311 2.79395 16.2936C2.79395 16.2561 2.79395 15.9748 2.8127 15.6561C3.20645 15.8248 3.65645 15.9186 4.10645 15.9186C5.7377 15.9186 7.10645 14.7561 7.4252 13.1998C7.5002 12.8623 7.23769 12.5436 6.88144 12.5436H6.8627V12.5623Z" fill="var(--color-blue-light, #dbe2ff)"/>
<path d="M13.6875 8.4375C13.3687 8.4375 13.125 8.68125 13.125 9C13.125 9.31875 13.3687 9.5625 13.6875 9.5625H16.5C16.65 9.5625 16.8 9.50625 16.8937 9.39375L18.6375 7.65C18.9 7.78125 19.2 7.85625 19.5 7.85625C20.5312 7.85625 21.375 7.0125 21.375 5.98125C21.375 4.95 20.5312 4.10625 19.5 4.10625C18.4688 4.10625 17.625 4.95 17.625 5.98125C17.625 6.3 17.7 6.58125 17.8312 6.84375L16.275 8.4375H13.6875ZM19.5 5.25C19.9125 5.25 20.25 5.5875 20.25 6C20.25 6.4125 19.9125 6.75 19.5 6.75C19.0875 6.75 18.75 6.4125 18.75 6C18.75 5.5875 19.0875 5.25 19.5 5.25ZM21.1875 9.9375C20.3438 9.9375 19.6312 10.4812 19.4062 11.25H13.6875C13.3687 11.25 13.125 11.4937 13.125 11.8125C13.125 12.1313 13.3687 12.375 13.6875 12.375H19.4062C19.65 13.1438 20.3625 13.6875 21.1875 13.6875C22.2188 13.6875 23.0625 12.8438 23.0625 11.8125C23.0625 10.7812 22.2188 9.9375 21.1875 9.9375ZM21.1875 12.5625C20.775 12.5625 20.4375 12.225 20.4375 11.8125C20.4375 11.4 20.775 11.0625 21.1875 11.0625C21.6 11.0625 21.9375 11.4 21.9375 11.8125C21.9375 12.225 21.6 12.5625 21.1875 12.5625ZM14.625 1.5C13.5938 1.5 12.75 2.34375 12.75 3.375C12.75 4.40625 13.5938 5.25 14.625 5.25C15.6562 5.25 16.5 4.40625 16.5 3.375C16.5 2.34375 15.6562 1.5 14.625 1.5ZM14.625 4.125C14.2125 4.125 13.875 3.7875 13.875 3.375C13.875 2.9625 14.2125 2.625 14.625 2.625C15.0375 2.625 15.375 2.9625 15.375 3.375C15.375 3.7875 15.0375 4.125 14.625 4.125ZM19.5 19.5C20.5312 19.5 21.375 18.6562 21.375 17.625C21.375 16.5938 20.5312 15.75 19.5 15.75C19.1813 15.75 18.9 15.825 18.6375 15.9562L16.8937 14.2125C16.8 14.1188 16.65 14.0625 16.5 14.0625H13.6875C13.3687 14.0625 13.125 14.3062 13.125 14.625C13.125 14.9438 13.3687 15.1875 13.6875 15.1875H16.275L17.85 16.7625C17.7187 17.025 17.6437 17.325 17.6437 17.625C17.625 18.6562 18.4688 19.5 19.5 19.5ZM19.5 16.875C19.9125 16.875 20.25 17.2125 20.25 17.625C20.25 18.0375 19.9125 18.375 19.5 18.375C19.0875 18.375 18.75 18.0375 18.75 17.625C18.75 17.2125 19.0875 16.875 19.5 16.875ZM14.625 22.125C15.6562 22.125 16.5 21.2812 16.5 20.25C16.5 19.2188 15.6562 18.375 14.625 18.375C13.5938 18.375 12.75 19.2188 12.75 20.25C12.75 21.2812 13.5938 22.125 14.625 22.125ZM14.625 19.5C15.0375 19.5 15.375 19.8375 15.375 20.25C15.375 20.6625 15.0375 21 14.625 21C14.2125 21 13.875 20.6625 13.875 20.25C13.875 19.8375 14.2125 19.5 14.625 19.5Z" fill="var(--color-brand, #e4002b)"/>
</svg>
