<svg width="40" height="40" viewBox="0 0 40 40" fill="none" xmlns="http://www.w3.org/2000/svg">
<path d="M19.8799 27.2864C23.8819 27.2864 27.1261 24.0422 27.1261 20.0402C27.1261 16.0382 23.8819 12.7939 19.8799 12.7939C15.8779 12.7939 12.6337 16.0382 12.6337 20.0402C12.6337 24.0422 15.8779 27.2864 19.8799 27.2864Z" fill="#E5EAFF"/>
<path d="M20 12C15.5879 12 12 15.5879 12 20C12 24.4121 15.5879 28 20 28C24.4121 28 28 24.4121 28 20C28 15.5879 24.4121 12 20 12ZM20 26.4925C16.4221 26.4925 13.5075 23.5779 13.5075 20C13.5075 16.4221 16.4221 13.5075 20 13.5075C23.5779 13.5075 26.4925 16.4221 26.4925 20C26.4925 23.5779 23.5779 26.4925 20 26.4925Z" fill="#0F1E57"/>
<path d="M29.2693 25.536C28.9593 25.7962 28.9093 26.2567 29.1593 26.577L31.2493 29.2495L30.1893 30.1804C29.7493 30.5708 29.5493 31.1614 29.6793 31.7319C29.7993 32.3025 30.2293 32.7629 30.7893 32.9331L34.1693 33.934C34.6693 34.0842 35.2193 33.9741 35.6293 33.6438C36.0093 33.3335 36.2293 32.873 36.2293 32.3926C36.2293 32.3525 36.2293 32.3225 36.2293 32.2825L35.9693 28.5489C35.9293 27.9383 35.5493 27.4078 34.9793 27.1776C34.4093 26.9473 33.7693 27.0474 33.3093 27.4478L32.3793 28.2686L30.7893 26.2367L36.7293 21.3319C36.9093 21.1818 36.9993 20.9716 36.9993 20.7514C36.9993 20.5812 36.9393 20.4111 36.8293 20.2709C36.5693 19.9506 36.0893 19.9106 35.7693 20.1708L29.2693 25.536ZM34.4793 28.649C34.4793 28.649 34.7393 32.3725 34.7393 32.3926C34.7393 32.4626 34.6693 32.5227 34.5993 32.5027C34.5993 32.5027 31.2293 31.5017 31.2193 31.5017C31.1393 31.4817 31.1193 31.3716 31.1793 31.3215C31.1793 31.3215 34.2893 28.5989 34.3093 28.5889C34.3893 28.5088 34.4793 28.5689 34.4793 28.649Z" fill="#0F1E57"/>
<path d="M30.536 16.73C30.7962 17.04 31.2567 17.09 31.577 16.84L34.2495 14.75L35.1804 15.81C35.5708 16.25 36.1614 16.45 36.7319 16.32C37.3025 16.2 37.7629 15.77 37.9331 15.21L38.934 11.83C39.0842 11.33 38.9741 10.78 38.6438 10.37C38.3335 9.99 37.873 9.77 37.3926 9.77C37.3525 9.77 37.3225 9.77 37.2825 9.77L33.5489 10.03C32.9383 10.07 32.4078 10.45 32.1776 11.02C31.9473 11.59 32.0474 12.23 32.4478 12.69L33.2686 13.62L31.2367 15.21L26.3319 9.27C26.1818 9.09 25.9716 9 25.7514 9C25.5812 9 25.4111 9.06 25.2709 9.17C24.9506 9.43 24.9106 9.91 25.1708 10.23L30.536 16.73ZM33.649 11.52C33.649 11.52 37.3725 11.26 37.3926 11.26C37.4626 11.26 37.5227 11.33 37.5027 11.4C37.5027 11.4 36.5017 14.77 36.5017 14.78C36.4817 14.86 36.3716 14.88 36.3215 14.82C36.3215 14.82 33.5989 11.71 33.5889 11.69C33.5088 11.61 33.5689 11.52 33.649 11.52Z" fill="#E4002B"/>
<path d="M17.536 8.73C17.7962 9.04 18.2567 9.09 18.577 8.84L21.2495 6.75L22.1804 7.81C22.5708 8.25 23.1614 8.45 23.7319 8.32C24.3025 8.2 24.7629 7.77 24.9331 7.21L25.934 3.83C26.0842 3.33 25.9741 2.78 25.6438 2.37C25.3335 1.99 24.873 1.77 24.3926 1.77C24.3525 1.77 24.3225 1.77 24.2825 1.77L20.5489 2.03C19.9383 2.07 19.4078 2.45 19.1776 3.02C18.9473 3.59 19.0474 4.23 19.4478 4.69L20.2686 5.62L18.2366 7.21L13.3319 1.27C13.1818 1.09 12.9716 1 12.7514 1C12.5812 1 12.4111 1.06 12.2709 1.17C11.9506 1.43 11.9106 1.91 12.1708 2.23L17.536 8.73ZM20.649 3.52C20.649 3.52 24.3725 3.26 24.3926 3.26C24.4626 3.26 24.5227 3.33 24.5027 3.4C24.5027 3.4 23.5017 6.77 23.5017 6.78C23.4817 6.86 23.3716 6.88 23.3215 6.82C23.3215 6.82 20.5989 3.71 20.5889 3.69C20.5088 3.61 20.5689 3.52 20.649 3.52Z" fill="#0F1E57"/>
<path d="M10.73 14.464C11.04 14.2038 11.09 13.7433 10.84 13.423L8.75 10.7505L9.81 9.81956C10.25 9.42919 10.45 8.83862 10.32 8.26807C10.2 7.69753 9.77 7.23709 9.21 7.06692L5.83 6.06596C5.33 5.91582 4.78 6.02592 4.37 6.35624C3.99 6.66654 3.77 7.12698 3.77 7.60744C3.77 7.64748 3.77 7.67751 3.77 7.71755L4.03 11.4511C4.07 12.0617 4.45 12.5922 5.02 12.8224C5.59 13.0527 6.23 12.9526 6.69 12.5522L7.62 11.7314L9.21 13.7634L3.27 18.6681C3.09 18.8182 3 19.0284 3 19.2486C3 19.4188 3.06 19.5889 3.17 19.7291C3.43 20.0494 3.91 20.0894 4.23 19.8292L10.73 14.464ZM5.52 11.351C5.52 11.351 5.26 7.62746 5.26 7.60744C5.26 7.53737 5.33 7.47732 5.4 7.49733C5.4 7.49733 8.77 8.4983 8.78 8.4983C8.86 8.51831 8.88 8.62842 8.82 8.67847C8.82 8.67847 5.71 11.4011 5.69 11.4111C5.61 11.5012 5.52 11.4411 5.52 11.351Z" fill="#0F1E57"/>
<path d="M8.46402 23.2693C8.20377 22.9593 7.74333 22.9093 7.42302 23.1593L4.75046 25.2493L3.81956 24.1893C3.42919 23.7493 2.83862 23.5493 2.26807 23.6793C1.69753 23.7993 1.23708 24.2293 1.06692 24.7893L0.0659607 28.1693C-0.0841834 28.6693 0.0259223 29.2193 0.356239 29.6293C0.666537 30.0093 1.12698 30.2293 1.60744 30.2293C1.64748 30.2293 1.67751 30.2293 1.71755 30.2293L5.45113 29.9693C6.06172 29.9293 6.59223 29.5493 6.82245 28.9793C7.05267 28.4093 6.95257 27.7693 6.55219 27.3093L5.7314 26.3793L7.76335 24.7893L12.6681 30.7293C12.8182 30.9093 13.0284 30.9993 13.2486 30.9993C13.4188 30.9993 13.5889 30.9393 13.7291 30.8293C14.0494 30.5693 14.0894 30.0893 13.8292 29.7693L8.46402 23.2693ZM5.35103 28.4793C5.35103 28.4793 1.62746 28.7393 1.60744 28.7393C1.53737 28.7393 1.47732 28.6693 1.49733 28.5993C1.49733 28.5993 2.4983 25.2293 2.4983 25.2193C2.51831 25.1393 2.62842 25.1193 2.67847 25.1793C2.67847 25.1793 5.40108 28.2893 5.41109 28.3093C5.49117 28.3893 5.43111 28.4793 5.35103 28.4793Z" fill="#0F1E57"/>
<path d="M22.464 31.2693C22.2038 30.9593 21.7433 30.9093 21.423 31.1593L18.7505 33.2493L17.8196 32.1893C17.4292 31.7493 16.8386 31.5493 16.2681 31.6793C15.6975 31.7993 15.2371 32.2293 15.0669 32.7893L14.066 36.1693C13.9158 36.6693 14.0259 37.2193 14.3562 37.6293C14.6665 38.0093 15.127 38.2293 15.6074 38.2293C15.6475 38.2293 15.6775 38.2293 15.7175 38.2293L19.4511 37.9693C20.0617 37.9293 20.5922 37.5493 20.8224 36.9793C21.0527 36.4093 20.9526 35.7693 20.5522 35.3093L19.7314 34.3793L21.7633 32.7893L26.6681 38.7293C26.8182 38.9093 27.0284 38.9993 27.2486 38.9993C27.4188 38.9993 27.5889 38.9393 27.7291 38.8293C28.0494 38.5693 28.0894 38.0893 27.8292 37.7693L22.464 31.2693ZM19.351 36.4793C19.351 36.4793 15.6275 36.7393 15.6074 36.7393C15.5374 36.7393 15.4773 36.6693 15.4973 36.5993C15.4973 36.5993 16.4983 33.2293 16.4983 33.2193C16.5183 33.1393 16.6284 33.1193 16.6785 33.1793C16.6785 33.1793 19.4011 36.2893 19.4111 36.3093C19.5012 36.3893 19.4311 36.4793 19.351 36.4793Z" fill="#0F1E57"/>
</svg>
