<svg width="40" height="40" viewBox="0 0 40 40" fill="none" xmlns="http://www.w3.org/2000/svg">
<path d="M19 23C19 20.7909 20.7909 19 23 19H33C35.2091 19 37 20.7909 37 23V33C37 35.2091 35.2091 37 33 37H23C20.7909 37 19 35.2091 19 33V23Z" fill="#E6E9F3"/>
<path fill-rule="evenodd" clip-rule="evenodd" d="M33 20.5H23C21.6193 20.5 20.5 21.6193 20.5 23V33C20.5 34.3807 21.6193 35.5 23 35.5H33C34.3807 35.5 35.5 34.3807 35.5 33V23C35.5 21.6193 34.3807 20.5 33 20.5ZM23 19C20.7909 19 19 20.7909 19 23V33C19 35.2091 20.7909 37 23 37H33C35.2091 37 37 35.2091 37 33V23C37 20.7909 35.2091 19 33 19H23Z" fill="#0F1E57"/>
<path fill-rule="evenodd" clip-rule="evenodd" d="M12 4.5H7C5.61929 4.5 4.5 5.61929 4.5 7V12C4.5 13.3807 5.61929 14.5 7 14.5H12C13.3807 14.5 14.5 13.3807 14.5 12V7C14.5 5.61929 13.3807 4.5 12 4.5ZM7 3C4.79086 3 3 4.79086 3 7V12C3 14.2091 4.79086 16 7 16H12C14.2091 16 16 14.2091 16 12V7C16 4.79086 14.2091 3 12 3H7Z" fill="#0F1E57"/>
<path fill-rule="evenodd" clip-rule="evenodd" d="M16.25 32.5C16.25 32.9142 15.9142 33.25 15.5 33.25L11.5 33.25C8.87665 33.25 6.75 31.1234 6.75 28.5L6.75 19.5C6.75 19.0858 7.08579 18.75 7.5 18.75C7.91421 18.75 8.25 19.0858 8.25 19.5L8.25 28.5C8.25 30.2949 9.70507 31.75 11.5 31.75L15.5 31.75C15.9142 31.75 16.25 32.0858 16.25 32.5Z" fill="#E4002B"/>
<path fill-rule="evenodd" clip-rule="evenodd" d="M18.75 7.5C18.75 7.08579 19.0858 6.75 19.5 6.75L28.5 6.75C31.1234 6.75 33.25 8.87665 33.25 11.5V15.5C33.25 15.9142 32.9142 16.25 32.5 16.25C32.0858 16.25 31.75 15.9142 31.75 15.5V11.5C31.75 9.70507 30.2949 8.25 28.5 8.25L19.5 8.25C19.0858 8.25 18.75 7.91421 18.75 7.5Z" fill="#E4002B"/>
</svg>
