<svg width="40" height="40" viewBox="0 0 40 40" fill="none" xmlns="http://www.w3.org/2000/svg">
<path d="M24.2176 22.2772C23.8064 22.2772 23.4653 22.6049 23.4653 23L23.4083 28.931H11.4819C10.7497 28.931 10.1479 29.4995 10.1479 30.203L10.1078 32.5448L2.46446 25.0954L10.1479 18.4845V19.9975C10.1479 20.701 10.7397 21.2696 11.4819 21.2696H13.1671C13.5783 21.2696 13.9194 20.9419 13.9194 20.5468C13.9194 20.1517 13.5783 19.824 13.1671 19.824H11.6625V18.4941C11.6826 17.6846 11.0105 17.0197 10.1679 17.0004C9.75669 16.9908 9.3354 17.1546 9.08464 17.4148L1.45138 24.045C1.16049 24.3149 1 24.6811 1 25.0762C1 25.4713 1.16049 25.8471 1.45138 26.117L9.06458 33.5567C9.3655 33.8458 9.7567 34 10.1579 34C10.5391 34 10.9202 33.8651 11.2212 33.5856C11.512 33.3061 11.6826 32.9303 11.6826 32.5352V30.3765H23.4384C24.281 30.3765 24.963 29.7212 24.963 28.9117L25 22.9904C24.9699 22.6049 24.6289 22.2772 24.2176 22.2772Z" fill="#E4002B"/>
<path d="M30.35 6.96022C30.05 6.65022 29.56 6.64022 29.26 6.95022C29.11 7.10022 29.03 7.30022 29.03 7.52022V10.0002C29.03 10.3302 28.77 10.5902 28.45 10.5902H16.53C16.1 10.5902 15.76 10.9402 15.76 11.3802V19.5002C15.76 19.9402 16.11 20.2902 16.53 20.2902H28.45C28.77 20.2902 29.03 20.5502 29.03 20.8802V23.3702C29.02 23.8102 29.36 24.1702 29.79 24.1702C30 24.1702 30.21 24.0902 30.36 23.9302L37.96 16.0002C38.11 15.8502 38.19 15.6502 38.19 15.4502C38.19 15.2402 38.11 15.0302 37.96 14.8802L30.35 6.96022Z" fill="#E5EAFF"/>
<path d="M30.9 6.44992C30.62 6.14992 30.23 5.97992 29.82 5.97992C29.42 5.93992 29.02 6.12992 28.73 6.41992C28.44 6.70992 28.27 7.10992 28.27 7.51992V9.83992H16.53C15.69 9.83992 15.01 10.5299 15.01 11.3799V19.4999C15.01 20.3499 15.69 21.0399 16.53 21.0399H28.27V23.3599C28.25 24.2099 28.93 24.9099 29.77 24.9299C29.78 24.9299 29.79 24.9299 29.8 24.9299C30.21 24.9299 30.61 24.7599 30.9 24.4599L38.5 16.5399C38.78 16.2499 38.94 15.8699 38.95 15.4599C38.95 15.0499 38.79 14.6499 38.51 14.3699L30.9 6.44992ZM29.77 23.3799V20.8899C29.77 20.1499 29.17 19.5499 28.44 19.5499L16.5 19.5099L16.52 11.3499H28.45C29.18 11.3499 29.78 10.7499 29.78 10.0099V7.51992C29.78 7.50992 29.78 7.48992 29.79 7.47992H29.81L37.41 15.4899L29.77 23.3799Z" fill="#0F1E57"/>
</svg>
