<svg fill="#4f73ff" viewBox="0 0 32 32" xmlns="http://www.w3.org/2000/svg">
<path d="M13.75 11.5C13.75 11.0858 14.0858 10.75 14.5 10.75H22.5C22.9142 10.75 23.25 11.0858 23.25 11.5C23.25 11.9142 22.9142 12.25 22.5 12.25H14.5C14.0858 12.25 13.75 11.9142 13.75 11.5Z" />
<path d="M14.5 15.75C14.0858 15.75 13.75 16.0858 13.75 16.5C13.75 16.9142 14.0858 17.25 14.5 17.25H22.5C22.9142 17.25 23.25 16.9142 23.25 16.5C23.25 16.0858 22.9142 15.75 22.5 15.75H14.5Z" />
<path d="M13.75 21.5C13.75 21.0858 14.0858 20.75 14.5 20.75H18.5C18.9142 20.75 19.25 21.0858 19.25 21.5C19.25 21.9142 18.9142 22.25 18.5 22.25H14.5C14.0858 22.25 13.75 21.9142 13.75 21.5Z" />
<path fill-rule="evenodd" clip-rule="evenodd" d="M5.75 5C5.75 4.58579 6.08579 4.25 6.5 4.25H25.5C25.9142 4.25 26.25 4.58579 26.25 5V27C26.25 27.4142 25.9142 27.75 25.5 27.75H6.5C6.08579 27.75 5.75 27.4142 5.75 27V5ZM7.25 5.75V26.25H10.75V5.75H7.25ZM12.25 5.75V26.25H24.75V5.75H12.25Z" />
</svg>
