<svg width="40" height="40" viewBox="0 0 40 40" fill="none" xmlns="http://www.w3.org/2000/svg">
<path d="M19.3501 9.0498H3.72014C2.85014 9.0498 2.14014 9.75981 2.14014 10.6298V14.0398C2.14014 14.2698 2.33012 14.4498 2.55012 14.4498H20.3901C20.6201 14.4498 20.8001 14.2698 20.8001 14.0398V10.5098C20.8101 9.6998 20.1601 9.0498 19.3501 9.0498Z" fill="#E5EAFF"/>
<path d="M30.4919 18.0839C30.382 17.9738 30.2021 17.9738 30.0922 18.0739C30.0423 18.124 30.0023 18.1941 30.0023 18.2642V19.2758H20.7494C20.3397 19.2758 20 19.6163 20 20.0269C20 20.4376 20.3397 20.7781 20.7494 20.7781H30.0023V21.7296C30.0023 21.8798 30.1222 22 30.2821 22C30.362 22 30.432 21.97 30.4919 21.9199L32.9201 20.1872C32.97 20.1371 33 20.067 33 19.9969C33 19.9268 32.97 19.8567 32.9201 19.8066L30.4919 18.0839Z" fill="#E4002B"/>
<path d="M30.5117 5.08349C30.4017 4.97389 30.2219 4.97389 30.1119 5.07353C30.062 5.12334 30.022 5.19309 30.022 5.26284V6.23927H29.7022C27.9034 6.23927 26.5343 6.74742 25.6349 7.74378C24.4058 9.1088 24.5856 10.8823 24.5956 10.962C24.8455 13.0444 24.6756 14.7084 24.076 15.9239C23.8961 16.2926 24.046 16.7409 24.4157 16.9203C24.5257 16.9701 24.6356 17 24.7455 17C25.0253 17 25.2852 16.8505 25.4151 16.5815C26.1346 15.1069 26.3644 13.154 26.0746 10.7927C26.0746 10.7827 25.9647 9.60698 26.7342 8.75011C27.3338 8.08254 28.3231 7.74378 29.6822 7.74378H30.002V8.72022C30.002 8.86967 30.1219 8.98924 30.2818 8.98924C30.3618 8.98924 30.4317 8.95934 30.4917 8.90953L32.92 7.18582C32.97 7.136 33 7.06625 33 6.99651C33 6.92676 32.97 6.85702 32.92 6.8072L30.5117 5.08349Z" fill="#E4002B"/>
<path d="M30.4939 31.1085C30.444 31.0586 30.3641 31.0287 30.2843 31.0287C30.1245 31.0287 30.0047 31.1484 30.0047 31.2979V32.2748H29.6452C28.3173 32.2748 27.3388 31.9458 26.7498 31.2879C25.971 30.4207 26.0708 29.2244 26.0708 29.2244C26.3504 26.8519 26.1308 24.8981 25.4219 23.4228C25.2421 23.0539 24.7928 22.8944 24.4234 23.0739C24.054 23.2533 23.8943 23.7019 24.074 24.0707C24.663 25.2869 24.8328 26.9516 24.5832 29.045C24.5732 29.1248 24.3935 30.8992 25.6215 32.2648C26.5102 33.2517 27.868 33.7601 29.6452 33.7601H30.0047V34.737C30.0047 34.8068 30.0346 34.8766 30.0945 34.9264C30.2044 35.0261 30.3841 35.0261 30.4939 34.9165L32.9201 33.1919C32.97 33.1421 33 33.0723 33 33.0025C33 32.9327 32.97 32.863 32.9201 32.8131L30.4939 31.1085Z" fill="#E4002B"/>
<path d="M37 9C38.1046 9 39 8.10457 39 7C39 5.89543 38.1046 5 37 5C35.8954 5 35 5.89543 35 7C35 8.10457 35.8954 9 37 9Z" fill="#0F1E57"/>
<path d="M37 22C38.1046 22 39 21.1046 39 20C39 18.8954 38.1046 18 37 18C35.8954 18 35 18.8954 35 20C35 21.1046 35.8954 22 37 22Z" fill="#0F1E57"/>
<path d="M37 35C38.1046 35 39 34.1046 39 33C39 31.8954 38.1046 31 37 31C35.8954 31 35 31.8954 35 33C35 34.1046 35.8954 35 37 35Z" fill="#0F1E57"/>
<path d="M18.5853 8.0498H4.45474C2.56664 8.0498 1.02002 9.58786 1.02002 11.4878V25.6118C1.02002 27.5117 2.5566 29.0498 4.45474 29.0498H18.5853C20.4734 29.0498 22.02 27.5117 22.02 25.6118V22.7538C22.02 22.3416 21.6786 21.9998 21.2668 21.9998C20.855 21.9998 20.5136 22.3416 20.5136 22.7538V25.6118C20.5136 26.6774 19.6499 27.5419 18.5853 27.5419H4.45474C3.39017 27.5419 2.52648 26.6774 2.52648 25.6118V15.9512H20.5136V17.2982C20.5136 17.7104 20.855 18.0522 21.2668 18.0522C21.6786 18.0522 22.02 17.7104 22.02 17.2982V11.4878C22.02 9.59791 20.4734 8.0498 18.5853 8.0498ZM2.52648 14.4433V11.4878C2.52648 10.4222 3.39017 9.5577 4.45474 9.5577H18.5853C19.6499 9.5577 20.5136 10.4222 20.5136 11.4878V14.4433H2.52648Z" fill="#0F1E57"/>
</svg>
