<svg xmlns="http://www.w3.org/2000/svg" viewBox="0 0 464 384" width="464" height="384">
<style>
  :root {
    --color-N600: #0f1e57;
    --color-brand: #e4002b;
    --color-blue-light: #e5eaff;
  }
  @media (prefers-color-scheme: dark) {
    :root {
      --color-N600: #e5eaff;
      --color-blue-light: #0e41aa;
    }
  }
</style>
<g clip-path="url(#clip0_4227_4306)">
<path d="M39.2218 279.458C34.9261 284.746 26.9904 289.553 31.8416 297.622C36.0699 304.715 45.3979 309.581 52.7705 312.808C58.6774 315.416 68.3596 319.793 74.7912 317.785C79.138 316.402 80.241 312.627 81.6544 308.675C83.6865 303.257 82.9286 301.217 78.1731 297.187C71.6397 291.606 62.7131 287.938 55.0733 284.135C50.0097 281.614 42.9029 278.076 37.5374 280.614C37.8488 281.102 38.2926 281.101 39.2218 279.458Z" fill="var(--color-blue-light, #e5eaff)"/>
<path d="M39.5343 280.611C27.47 284.582 36.1373 292.333 41.337 296.585C48.6699 302.563 57.5522 306.32 66.4331 309.19C72.0724 311 87.9612 311.594 82.3082 301.795C79.7263 297.184 74.3504 293.732 69.9079 291.077C66.6649 289.13 63.8221 287.715 59.3362 285.592C60.0472 286.168 45.744 278.603 39.5343 280.611Z" stroke="var(--color-N600, #0f1e57)" stroke-width="2" stroke-miterlimit="10" stroke-linecap="round" stroke-linejoin="round" fill="none"/>
<path d="M33.8601 284.216C32.0907 287.547 28.5925 292.124 30.7295 296.07C33.2673 300.77 36.5115 303.383 40.6886 306.571C47.1766 311.575 51.528 312.854 60.6314 316.167C62.8962 316.962 66.5369 317.888 68.9781 318.105C70.7979 318.235 73.3726 318.63 75.1028 318.272C77.454 317.78 78.1613 316.137 79.3116 314.049C80.0638 312.761 80.6383 311.384 81.3906 310.096C81.8771 309.119 83.2504 307.696 83.2485 306.587" stroke="var(--color-N600, #0f1e57)" stroke-width="2" stroke-miterlimit="10" stroke-linecap="round" stroke-linejoin="round" fill="none"/>
<path d="M50.3735 312.501C47.0878 311.53 43.8066 313.222 42.1252 316.154C39.6474 320.463 42.81 327.248 46.2765 330.082C48.8542 332.253 55.9175 336.323 59.241 333.433C62.1657 330.898 58.6981 327.398 56.3883 326.248C46.7057 321.649 34.1034 322.47 30.7956 334.458C28.6788 342.273 34.9918 348.741 42.3163 349.838C44.5802 350.189 49.5081 351.201 50.9237 348.581C52.1624 346.315 50.1608 343.656 48.3833 342.327C41.5404 337.369 32.4007 338.805 25.6626 343.21C21.8057 345.613 18.9268 348.946 17.8249 353.386C17.428 354.851 16.7253 359.157 16.9934 360.178" stroke="var(--color-N600, #0f1e57)" stroke-width="2" stroke-miterlimit="10" stroke-linecap="round" stroke-linejoin="round" fill="none"/>
<path d="M322.393 241.987C322.393 242.562 322.969 243.483 323.199 243.944C323.544 244.634 324.005 245.325 324.696 245.671C325.156 246.016 325.501 246.361 325.962 246.592C326.422 246.822 326.883 246.707 327.459 246.707C328.955 246.822 330.337 247.167 331.948 247.167C333.215 247.167 334.366 247.628 335.632 247.628C337.244 247.628 338.741 247.858 340.353 248.088C341.158 248.203 341.849 248.203 342.54 248.203C343.346 248.203 344.152 248.318 344.957 248.434C346.684 248.549 348.526 248.549 350.138 248.318C351.289 248.203 352.325 248.549 353.477 248.434C354.628 248.318 355.664 248.318 356.815 248.318C358.772 248.318 360.729 248.318 362.687 248.318C363.723 248.318 364.644 248.549 365.565 248.549C366.371 248.549 367.061 248.318 367.982 248.318C371.321 248.318 374.66 248.318 377.998 248.318C378.919 248.318 379.955 248.434 380.876 248.203C381.567 248.088 382.258 248.088 382.949 248.088C383.87 248.088 384.675 248.088 385.596 247.973C386.287 247.858 386.978 248.088 387.669 248.088C388.129 247.973 388.474 247.973 388.935 247.973C389.28 247.973 389.511 248.088 389.856 248.088C390.662 248.203 391.353 248.088 392.159 248.088C392.964 248.088 393.655 248.203 394.346 248.318C394.922 248.434 395.612 248.318 396.188 248.434C396.994 248.549 397.8 248.549 398.605 248.779C399.181 248.894 399.757 248.779 400.332 248.894C401.829 249.239 403.441 248.894 404.822 248.779C408.276 248.318 411.845 247.743 415.298 247.743C417.14 247.743 418.983 247.282 420.825 247.513C422.091 247.628 423.127 247.973 424.393 247.973C425.199 247.973 425.545 248.203 426.35 248.088C426.926 247.973 427.387 247.858 427.847 247.513C428.653 246.937 429.574 246.246 429.804 245.325C430.034 244.289 429.689 243.138 428.998 242.447C428.077 241.641 427.041 240.95 425.775 240.49C424.969 240.145 424.048 239.914 423.242 239.569C421.861 239.108 420.479 238.648 418.982 238.303C418.637 238.187 418.177 238.072 417.831 237.957H417.716C417.716 237.842 417.716 237.727 417.716 237.612C417.601 236.691 417.371 235.77 417.14 234.849C416.795 233.467 415.644 231.741 414.493 230.82C413.917 230.359 413.226 229.899 412.535 229.553C412.19 229.208 411.73 229.323 411.269 229.323C410.463 229.323 409.772 229.668 409.082 230.129C408.736 230.474 408.161 230.82 408.046 231.165C408.391 230.359 409.082 229.438 409.082 228.632C409.197 228.057 409.082 227.366 409.082 226.675C409.082 225.869 409.197 224.948 408.967 224.142C408.161 220.804 405.858 218.271 403.095 216.429C402.289 215.853 401.599 215.393 400.678 214.932C399.987 214.702 399.411 214.472 398.605 214.357C397.339 214.011 396.418 214.011 395.152 214.242C393.079 214.587 392.043 216.774 391.353 218.731C391.237 217.926 390.892 217.12 390.662 216.659C389.626 214.357 388.474 212.169 387.438 209.867C386.748 208.255 385.942 206.759 385.021 205.262C384.56 204.456 383.985 203.765 383.409 203.075C382.833 202.384 381.912 202.038 381.222 201.348C380.416 200.657 379.955 200.081 379.034 199.506C378.574 199.16 377.998 198.815 377.538 198.47C376.847 197.894 375.926 197.203 375.12 196.973C374.314 196.628 373.278 196.512 372.472 196.397C371.436 196.167 370.4 195.822 369.364 195.822C368.788 195.707 368.213 195.822 367.637 195.822C366.946 195.822 366.371 195.591 365.68 195.591C364.414 195.591 363.262 195.361 362.111 195.361C360.729 195.361 359.233 195.707 357.967 196.052C357.391 196.167 356.93 196.282 356.355 196.512C355.664 196.743 354.973 196.743 354.283 197.088C353.131 197.664 351.865 198.585 350.714 199.275C350.368 199.621 350.138 199.966 349.678 200.312C349.332 200.542 349.102 200.657 348.872 200.887C348.181 201.693 347.605 202.729 347.03 203.535C346.684 204.111 346.224 204.686 345.763 205.262C344.727 206.759 343.806 208.831 343.576 210.673C343.461 211.248 343.231 211.709 343.231 212.4C343.116 212.975 343.346 213.436 343.461 213.896C343.576 214.702 343.806 215.623 343.576 216.429C343.231 216.544 342.77 216.084 342.54 216.084C342.079 215.853 341.734 215.738 341.158 215.738C340.007 215.738 338.741 215.623 337.59 215.738C333.79 216.199 330.797 218.962 328.955 222.07C328.495 222.761 328.149 223.797 327.919 224.718C327.689 225.524 327.459 226.445 327.343 227.366C327.228 228.172 327.228 229.323 327.343 230.244C327.459 231.165 327.459 231.856 327.804 232.661C328.38 233.813 329.07 235.309 328.84 236.691C328.61 237.957 327.343 237.842 326.422 238.187C325.386 238.533 324.35 239.108 323.544 240.029C323.314 240.375 323.199 240.72 322.969 241.066C322.623 241.066 322.393 241.641 322.393 241.987ZM416.91 237.497C416.91 237.497 416.91 237.612 416.91 237.497V237.497Z" fill="var(--color-N600, #0f1e57)"/>
<path d="M280.704 212.986C279.208 218.627 282.661 221.736 288.187 221.505C290.029 215.98 290.259 210.799 291.065 204.928C291.526 201.013 294.059 195.948 290.259 193.07C284.158 188.35 282.891 196.178 282.891 200.438C282.891 203.546 283.352 206.654 282.316 209.648C281.74 211.375 280.474 213.101 280.474 214.368C281.28 213.447 282.201 213.562 280.704 212.986Z" fill="#6A9DFF"/>
<path d="M282.777 192.494C281.51 192.149 280.244 191.803 278.862 191.573C271.955 189.961 266.314 185.356 258.831 185.011C255.953 184.896 253.074 185.702 250.311 186.623C248.7 187.198 246.973 187.659 245.361 188.465C243.404 189.501 240.756 191.228 239.26 192.84C238.569 193.53 237.878 194.106 237.187 194.797C236.727 195.257 236.612 196.063 236.151 196.523C235.576 197.099 235 197.675 234.424 198.365C230.165 203.431 224.524 204.697 218.998 207.69C217.156 208.611 215.429 209.763 213.472 210.453C209.327 211.835 205.413 212.526 207.025 217.591C207.37 218.627 207.14 218.858 208.061 219.548C209.673 220.7 211.515 221.275 213.472 221.736C215.429 222.196 217.156 222.196 219.113 221.736C222.682 220.93 226.135 219.663 229.474 218.397C230.05 218.167 230.625 217.937 231.201 217.706C231.546 217.591 231.892 217.476 232.237 217.361C232.582 217.246 232.813 216.9 233.273 216.67C234.77 216.095 236.497 215.749 238.108 215.634C241.677 215.289 245.131 216.095 248.7 216.9C248.469 216.9 248.239 216.785 248.009 216.785" stroke="var(--color-N600, #0f1e57)" stroke-width="2" stroke-miterlimit="10" stroke-linecap="round" stroke-linejoin="round" fill="none"/>
<path d="M236.266 216.095C235.345 217.476 235.115 218.052 234.424 218.743C234.079 219.088 233.388 220.124 233.158 220.469C232.697 221.16 232.352 221.851 231.776 222.657C222.912 235.321 202.42 229.91 191.713 240.501C189.18 243.034 189.526 245.797 192.289 247.293C194.706 248.56 196.318 247.984 198.966 247.409C202.765 246.603 207.485 245.912 211.284 244.991C214.853 244.07 218.652 244.07 222.221 243.725C225.329 243.379 228.553 242.688 231.661 242.343C235.23 241.998 238.684 241.652 242.138 240.846C248.124 239.465 253.074 238.429 257.91 234.63C261.478 231.867 263.896 227.837 267.004 224.614C270.343 221.045 274.027 219.779 278.747 219.433C279.438 219.433 279.553 219.203 280.359 219.088" stroke="var(--color-N600, #0f1e57)" stroke-width="2" stroke-miterlimit="10" stroke-linecap="round" stroke-linejoin="round" fill="none"/>
<path d="M198.736 248.099C198.736 248.445 198.39 248.56 198.275 248.905C198.16 249.02 198.16 249.366 198.16 249.481C198.045 250.056 198.275 250.632 198.621 251.093C199.426 252.244 200.808 252.934 202.189 253.05C203.686 253.165 205.067 252.129 206.334 251.553C206.794 251.323 207.025 251.208 207.37 250.977C207.715 250.632 208.061 250.517 208.406 250.287C208.982 249.941 209.672 249.481 210.248 249.02C210.478 248.905 210.824 248.675 211.054 248.56C211.514 248.33 211.86 247.984 212.32 247.754C212.551 247.639 212.896 247.524 213.241 247.293C213.587 247.063 213.932 246.833 214.277 246.718C214.508 246.603 214.853 246.488 215.083 246.372C215.314 246.372 215.429 246.257 215.659 246.257C215.774 246.142 215.774 246.027 216.004 246.027C216.58 245.797 217.271 245.797 217.846 245.451C218.307 245.221 218.767 244.991 219.343 244.991C220.034 244.876 222.106 243.955 222.797 243.84" stroke="var(--color-N600, #0f1e57)" stroke-width="2" stroke-miterlimit="10" stroke-linecap="round" stroke-linejoin="round" fill="none"/>
<path d="M282.776 192.034C282.431 197.099 283.122 202.855 282.086 208.151C281.51 211.144 279.323 218.512 281.05 221.275C282.086 222.887 285.539 223.347 287.266 222.657C290.029 221.621 290.029 219.203 290.605 216.325C291.871 209.648 293.713 201.013 292.217 194.106C291.641 191.573 290.95 191.113 288.072 190.997C285.885 190.882 284.043 190.882 282.776 192.034Z" stroke="var(--color-N600, #0f1e57)" stroke-width="2" stroke-miterlimit="10" stroke-linecap="round" stroke-linejoin="round" fill="none"/>
<path d="M293.483 207.46C300.505 214.368 301.311 231.176 299.699 240.386C299.124 243.84 296.821 251.783 292.216 249.135C287.611 246.488 292.101 241.077 296.131 241.192C305.225 241.652 302.232 258.576 306.952 263.986C315.702 274.002 328.135 255.697 315.472 257.424C312.248 263.296 326.178 265.483 329.517 263.181C332.74 260.878 341.144 242.919 336.885 243.725" stroke="var(--color-N600, #0f1e57)" stroke-width="2" stroke-miterlimit="10" stroke-linecap="round" stroke-linejoin="round" fill="none"/>
<path d="M153.006 100.974C153.552 100.114 154.363 99.8196 155.042 99.2424C155.937 98.3909 156.492 97.1813 157.217 96.1507C157.979 95.0162 158.713 93.6363 159.92 92.8975C162.692 91.0794 166.518 91.8745 168.523 88.6038C169.703 88.9131 171.975 91.7318 172.015 92.9214C172.364 92.9301 172.543 92.7598 172.639 93.1468C172.188 94.3939 173.38 95.6474 173.524 96.8745C173.628 96.9121 173.694 97.0536 173.798 97.0912C174.725 97.7786 176.05 99.3151 176.514 100.306C177.651 102.362 177.543 105.26 176.376 107.189C175.501 108.635 174.057 109.053 173.286 110.537C172.298 112.295 171.896 114.383 171.012 116.178C170.166 117.87 168.689 120.979 166.509 121.484C164.961 121.864 162.548 119.112 161.697 118.217C159.853 116.493 157.97 114.872 155.872 113.526C153.565 112.105 153.545 111.51 153.021 108.735C152.836 106.318 151.556 103.035 153.006 100.974Z" fill="var(--color-brand, #e4002b)"/>
<path d="M122.649 83.7257L122.778 80.7522C124.065 80.5243 128.012 79.7878 133.508 78.6646C144.239 76.577 155.912 82.1909 158.885 82.32C161.264 82.4233 167.055 86.9306 169.653 89.1714L167.381 92.4775C165.381 92.8162 161.039 93.4789 159.68 93.4199C157.981 93.3461 160.178 91.7391 159.791 90.8711C159.403 90.0031 158.128 89.9478 156.909 88.6181C155.69 87.2883 146.807 86.0514 143.888 84.6479C141.554 83.5251 128.756 83.5653 122.649 83.7257Z" fill="var(--color-brand, #e4002b)"/>
<path d="M178.844 108.614C179.184 106.573 177.852 103.795 177.143 102.661L167.364 117.118L168.64 120.519C170.057 119.952 172.041 117.118 175.017 120.519C176.81 122.568 180.545 131.574 182.246 134.55C183.606 136.931 192.45 144.613 196.702 148.156L198.403 143.054C195.852 142.629 195.852 141.778 194.576 140.928C193.515 140.221 186.981 131.024 185.647 129.023C183.946 126.472 178.419 111.165 178.844 108.614Z" fill="var(--color-brand, #e4002b)"/>
<path d="M172.353 91.9862C169.058 86.7996 161.081 82.8589 155.356 81.1422C145.399 78.1306 136.107 77.8276 125.923 79.6695C121.78 80.4045 116.816 81.7832 113.232 83.8956C113.79 83.9795 114.272 84.2713 114.725 84.3176C114.263 84.6207 114.009 84.9988 113.547 85.3018C113.405 85.3682 113.405 85.3682 113.547 85.3018C114 85.3482 114.416 85.4984 114.803 85.4033C114.274 85.5648 113.521 86.3499 113.058 86.6529C113.976 87.6898 118.06 85.1704 119.645 84.6858C123.023 83.7917 131.37 84.106 134.864 84.1937C142.55 84.3865 145.752 84.9563 153.215 87.0663C154.811 87.5258 159.413 89.4242 159.748 91.4251C160.053 93.1807 154.265 98.1394 153.041 99.5769C145.014 108.779 134.736 115.758 123.965 121.5C118.579 124.371 113.165 126.997 107.551 129.199C101.655 131.533 95.0419 134.548 89.1453 136.882C84.7677 138.59 81.2189 139.305 76.8125 140.767C75.3687 141.186 75.2936 141.394 74.6349 142.566C74.2305 143.359 71.989 146.31 71.9051 146.867C71.9477 149.35 78.0647 143.805 79.0551 143.341C80.6116 142.611 84.7264 141.63 86.378 141.287C89.7852 140.638 90.6918 140.731 93.995 140.045C102.574 138.093 113.038 134.825 121.029 131.25C130.255 127.181 137.887 123.947 148.127 126.826C157.536 129.404 161.989 137.241 163.3 146.294C165.138 159.414 159.86 169.14 150.719 178.174C147.958 180.937 143.552 182.399 141.206 185.312C141.795 186.935 142.374 188.907 142.085 190.682C143.962 189.716 144.581 187.354 146.184 186.171C147.786 184.987 149.863 184.445 151.503 183.158C155.208 180.384 158.374 176.828 161.502 173.376C165.779 168.694 169.11 162.73 171.043 156.731C172.526 151.979 171.899 144.936 170.491 139.727C169.055 134.273 167.526 129.725 167.496 123.956C167.502 122.313 169.224 119.175 171.404 118.67C175.764 117.661 178.294 126.918 179.555 129.607C183.963 139.191 203.972 159.584 211.606 142.367C211.21 142.811 210.398 143.106 209.936 143.409C210.275 142.473 211.265 142.009 211.291 140.961C210.858 141.509 209.602 141.408 209.273 141.994C209.498 141.37 209.724 140.746 209.949 140.123C207.265 143.971 204.126 146.479 199.193 143.873C195.157 141.709 191.722 137.883 189.194 134.149C186.363 129.953 184.259 126.019 182.277 121.425C181.054 118.633 179.761 114.405 179.066 111.451C178.371 108.498 178.669 106.373 177.974 103.419C177.479 100.889 175.908 99.3816 174.488 97.4582C173.201 95.8179 172.867 93.8169 172.353 91.9862Z" stroke="var(--color-N600, #0f1e57)" stroke-width="2" stroke-miterlimit="10" stroke-linecap="round" stroke-linejoin="round" fill="none"/>
<path d="M174.761 96.171C174.727 95.8807 174.481 95.7918 174.615 95.4231C174.659 95.3001 174.748 95.0543 174.837 94.8084C174.936 94.1493 175.114 93.6576 175.291 93.1659C175.514 92.5513 175.613 91.8922 176.081 91.3664C176.504 90.9636 176.805 90.5163 177.106 90.069C177.997 89.1404 179.336 88.5124 180.689 89.0012C181.426 89.2678 182.03 89.9031 182.679 90.4156C183.328 90.928 183.597 91.7204 184.034 92.4343C184.348 93.1037 184.495 93.8517 184.273 94.4663C184.139 94.8351 184.129 95.2483 183.996 95.6171C183.907 95.863 183.774 96.2317 183.685 96.4776C183.083 97.3722 182.393 98.5126 181.143 98.8947C180.563 98.9629 179.893 99.2768 179.313 99.345C178.732 99.4131 177.547 98.8458 176.977 98.5007C176.362 98.2786 175.68 97.4758 175.321 96.9293C175.041 96.5502 174.973 95.9696 174.604 95.8363C174.56 95.9592 174.515 96.0821 174.348 96.1606C174.181 96.2391 174.058 96.1947 174.761 96.171Z" stroke="var(--color-N600, #0f1e57)" stroke-width="2" stroke-miterlimit="10" stroke-linecap="round" stroke-linejoin="round" fill="none"/>
<path d="M184.307 94.7567L184.352 94.6337C184.597 94.7226 184.754 95.0573 184.833 95.2247C185.157 95.4809 185.403 95.5698 185.772 95.7031C186.018 95.792 186.342 96.0482 186.755 96.0585C187.046 96.0245 187.336 95.9904 187.582 96.0793C187.671 95.8334 188.005 95.6764 188.094 95.4306C188.183 95.1847 188.361 94.693 188.45 94.4471C188.426 93.7436 187.856 93.3985 187.275 93.4667C186.695 93.5348 186.316 93.8147 185.813 94.0502C185.311 94.2857 184.888 94.6886 184.386 94.924C184.509 94.9685 184.509 94.9685 184.587 95.1358" stroke="var(--color-N600, #0f1e57)" stroke-width="2" stroke-miterlimit="10" stroke-linecap="round" stroke-linejoin="round" fill="none"/>
<path d="M181.388 92.4505C180.483 92.2624 180.162 93.5361 181.022 93.8472C181.927 94.0353 182.293 92.6386 181.388 92.4505Z" fill="var(--color-N600, #0f1e57)"/>
<path d="M161.487 116.848C163.568 118.893 165.386 121.665 167.863 123.266C166.514 126.046 173.481 145.18 172.541 149.986C165.663 185.148 151.215 180.618 149.506 180.471C147.485 180.21 157.585 171.19 161.487 160.487C163.112 144.33 161.245 133.447 153.381 129.195C148.344 126.551 143.736 126.296 138.053 127.062C121.604 134.094 88.1088 147.136 85.7277 143.054C85.1742 140.034 84.2212 136.889 88.704 135.826C94.0747 134.947 133.539 111.917 138.529 109.49C143.944 106.865 148.662 105.515 152.241 100.815C153.227 103.287 154.318 105.796 155.409 108.305L155.409 108.306C156.964 111.806 158.621 114.05 161.487 116.848Z" fill="var(--color-N600, #0f1e57)" stroke="var(--color-N600, #0f1e57)" stroke-width="2" stroke-miterlimit="10" stroke-linecap="round" stroke-linejoin="round"/>
<path d="M164.745 122.139C164.595 122.555 164.173 124.047 164.118 124.85" stroke="var(--color-blue-light, #e5eaff)" stroke-width="1.5" stroke-miterlimit="10" stroke-linecap="round" stroke-linejoin="round" fill="none"/>
<path d="M164.794 132.732C164.462 132.025 164.336 130.099 164.373 129.995" stroke="var(--color-blue-light, #e5eaff)" stroke-width="1.5" stroke-miterlimit="10" stroke-linecap="round" stroke-linejoin="round" fill="none"/>
<path d="M168.621 136.202C168.459 135.673 168.439 135.079 168.278 134.55" stroke="var(--color-blue-light, #e5eaff)" stroke-width="1.5" stroke-miterlimit="10" stroke-linecap="round" stroke-linejoin="round" fill="none"/>
<path d="M170.841 147.653C170.755 146.916 170.423 146.209 170.053 145.605" stroke="var(--color-blue-light, #e5eaff)" stroke-width="1.5" stroke-miterlimit="10" stroke-linecap="round" stroke-linejoin="round" fill="none"/>
<path d="M165.682 147.507C165.803 146.846 165.717 146.109 165.593 145.477" stroke="var(--color-blue-light, #e5eaff)" stroke-width="1.5" stroke-miterlimit="10" stroke-linecap="round" stroke-linejoin="round" fill="none"/>
<path d="M164.442 141.183C164.035 140.684 163.911 140.051 163.683 139.381" stroke="var(--color-blue-light, #e5eaff)" stroke-width="1.5" stroke-miterlimit="10" stroke-linecap="round" stroke-linejoin="round" fill="none"/>
<path d="M161.34 133.834C161.462 133.173 161.442 132.578 161.176 132.012" stroke="var(--color-blue-light, #e5eaff)" stroke-width="1.5" stroke-miterlimit="10" stroke-linecap="round" stroke-linejoin="round" fill="none"/>
<path d="M120.168 132.765C120.84 132.751 121.419 132.613 121.92 132.239" stroke="var(--color-blue-light, #e5eaff)" stroke-width="1.5" stroke-miterlimit="10" stroke-linecap="round" stroke-linejoin="round" fill="none"/>
<path d="M163.719 160.834C163.086 161.061 162.582 161.378 162.226 161.892" stroke="var(--color-blue-light, #e5eaff)" stroke-width="1.5" stroke-miterlimit="10" stroke-linecap="round" stroke-linejoin="round" fill="none"/>
<path d="M159.541 126.133C159.417 125.501 159.539 124.84 159.868 124.254" stroke="var(--color-blue-light, #e5eaff)" stroke-width="1.5" stroke-miterlimit="10" stroke-linecap="round" stroke-linejoin="round" fill="none"/>
<path d="M160.983 120.192C161.096 119.88 161.246 119.464 161.284 119.36" stroke="var(--color-blue-light, #e5eaff)" stroke-width="1.5" stroke-miterlimit="10" stroke-linecap="round" stroke-linejoin="round" fill="none"/>
<path d="M156.292 130.247C156.168 129.614 156.148 129.02 156.128 128.425" stroke="var(--color-blue-light, #e5eaff)" stroke-width="1.5" stroke-miterlimit="10" stroke-linecap="round" stroke-linejoin="round" fill="none"/>
<path d="M155.572 124.111C155.684 123.799 155.835 123.384 155.947 123.072" stroke="var(--color-blue-light, #e5eaff)" stroke-width="1.5" stroke-miterlimit="10" stroke-linecap="round" stroke-linejoin="round" fill="none"/>
<path d="M158.316 117.817C158.599 117.685 158.712 117.373 158.824 117.061" stroke="var(--color-blue-light, #e5eaff)" stroke-width="1.5" stroke-miterlimit="10" stroke-linecap="round" stroke-linejoin="round" fill="none"/>
<path d="M150.796 126.595C152.385 126.727 151.803 126.074 151.24 125.366" stroke="var(--color-blue-light, #e5eaff)" stroke-width="1.5" stroke-miterlimit="10" stroke-linecap="round" stroke-linejoin="round" fill="none"/>
<path d="M122.262 128.847C122.978 128.479 123.466 127.869 124.035 127.183" stroke="var(--color-blue-light, #e5eaff)" stroke-width="1.5" stroke-miterlimit="10" stroke-linecap="round" stroke-linejoin="round" fill="none"/>
<path d="M162.987 165.215C162.426 165.793 162.159 166.527 161.839 167.358" stroke="var(--color-blue-light, #e5eaff)" stroke-width="1.5" stroke-miterlimit="10" stroke-linecap="round" stroke-linejoin="round" fill="none"/>
<path d="M152.018 122.239C152.214 121.37 152.619 120.576 153.089 119.924" stroke="var(--color-blue-light, #e5eaff)" stroke-width="1.5" stroke-miterlimit="10" stroke-linecap="round" stroke-linejoin="round" fill="none"/>
<path d="M155.366 115.576C155.583 115.302 155.799 115.028 155.95 114.612" stroke="var(--color-blue-light, #e5eaff)" stroke-width="1.5" stroke-miterlimit="10" stroke-linecap="round" stroke-linejoin="round" fill="none"/>
<path d="M156.462 110.919C155.613 111.317 155.275 112.253 154.388 112.755" stroke="var(--color-blue-light, #e5eaff)" stroke-width="1.5" stroke-miterlimit="10" stroke-linecap="round" stroke-linejoin="round" fill="none"/>
<path d="M89.5544 137.705C90.4888 137.785 91.2493 137.144 92.2681 137.152" stroke="var(--color-blue-light, #e5eaff)" stroke-width="1.5" stroke-miterlimit="10" stroke-linecap="round" stroke-linejoin="round" fill="none"/>
<path d="M152.476 115.119C152.297 115.289 151.534 116.424 151.205 117.01" stroke="var(--color-blue-light, #e5eaff)" stroke-width="1.5" stroke-miterlimit="10" stroke-linecap="round" stroke-linejoin="round" fill="none"/>
<path d="M94.6567 135.124C94.8969 135.066 96.1246 134.465 96.7028 134.122" stroke="var(--color-blue-light, #e5eaff)" stroke-width="1.5" stroke-miterlimit="10" stroke-linecap="round" stroke-linejoin="round" fill="none"/>
<path d="M169.192 149.857C169.083 150.079 168.757 151.406 168.649 152.07" stroke="var(--color-blue-light, #e5eaff)" stroke-width="1.5" stroke-miterlimit="10" stroke-linecap="round" stroke-linejoin="round" fill="none"/>
<path d="M149.388 119.761C149.209 119.931 148.484 120.962 148.325 121.727" stroke="var(--color-blue-light, #e5eaff)" stroke-width="1.5" stroke-miterlimit="10" stroke-linecap="round" stroke-linejoin="round" fill="none"/>
<path d="M133.61 122.381C133.367 122.423 132.191 122.877 131.634 123.425" stroke="var(--color-blue-light, #e5eaff)" stroke-width="1.5" stroke-miterlimit="10" stroke-linecap="round" stroke-linejoin="round" fill="none"/>
<path d="M154.301 174.969C154.518 174.851 155.487 174.046 155.84 173.349" stroke="var(--color-blue-light, #e5eaff)" stroke-width="1.5" stroke-miterlimit="10" stroke-linecap="round" stroke-linejoin="round" fill="none"/>
<path d="M100.101 133.584C100.341 133.526 101.484 132.996 102.005 132.413" stroke="var(--color-blue-light, #e5eaff)" stroke-width="1.5" stroke-miterlimit="10" stroke-linecap="round" stroke-linejoin="round" fill="none"/>
<path d="M167.203 154.118C167.094 154.339 166.767 155.556 166.881 156.33" stroke="var(--color-blue-light, #e5eaff)" stroke-width="1.5" stroke-miterlimit="10" stroke-linecap="round" stroke-linejoin="round" fill="none"/>
<path d="M146.621 124.166C146.367 124.544 145.858 125.301 145.858 125.301" stroke="var(--color-blue-light, #e5eaff)" stroke-width="1.5" stroke-miterlimit="10" stroke-linecap="round" stroke-linejoin="round" fill="none"/>
<path d="M104.861 130.303C105.27 130.102 106.089 129.702 106.089 129.702" stroke="var(--color-blue-light, #e5eaff)" stroke-width="1.5" stroke-miterlimit="10" stroke-linecap="round" stroke-linejoin="round" fill="none"/>
<path d="M154.88 108.467C153.91 109.527 152.864 110.794 151.723 111.674" stroke="var(--color-blue-light, #e5eaff)" stroke-width="1.5" stroke-miterlimit="10" stroke-linecap="round" stroke-linejoin="round" fill="none"/>
<path d="M92.9559 142.288C94.326 141.856 95.8651 141.281 97.2932 141.089" stroke="var(--color-blue-light, #e5eaff)" stroke-width="1.5" stroke-miterlimit="10" stroke-linecap="round" stroke-linejoin="round" fill="none"/>
<path d="M148.567 114.881C147.954 115.6 147.446 116.356 146.871 116.971" stroke="var(--color-blue-light, #e5eaff)" stroke-width="1.5" stroke-miterlimit="10" stroke-linecap="round" stroke-linejoin="round" fill="none"/>
<path d="M116.761 123.796C116.149 124.515 115.641 125.271 115.066 125.886" stroke="var(--color-blue-light, #e5eaff)" stroke-width="1.5" stroke-miterlimit="10" stroke-linecap="round" stroke-linejoin="round" fill="none"/>
<path d="M98.3728 138.221C99.2625 137.905 100.081 137.504 100.886 137.259" stroke="var(--color-blue-light, #e5eaff)" stroke-width="1.5" stroke-miterlimit="10" stroke-linecap="round" stroke-linejoin="round" fill="none"/>
<path d="M164.754 149.818C164.426 150.704 164.208 151.589 163.88 152.364" stroke="var(--color-blue-light, #e5eaff)" stroke-width="1.5" stroke-miterlimit="10" stroke-linecap="round" stroke-linejoin="round" fill="none"/>
<path d="M118.705 129.998C117.937 130.547 117.26 131.157 116.553 131.614" stroke="var(--color-blue-light, #e5eaff)" stroke-width="1.5" stroke-miterlimit="10" stroke-linecap="round" stroke-linejoin="round" fill="none"/>
<path d="M165.989 162.988C166.542 162.222 166.988 161.428 167.512 160.769" stroke="var(--color-blue-light, #e5eaff)" stroke-width="1.5" stroke-miterlimit="10" stroke-linecap="round" stroke-linejoin="round" fill="none"/>
<path d="M144.179 121.168C143.783 121.613 143.35 122.161 142.813 122.672" stroke="var(--color-blue-light, #e5eaff)" stroke-width="1.5" stroke-miterlimit="10" stroke-linecap="round" stroke-linejoin="round" fill="none"/>
<path d="M104.011 134.911C104.576 134.724 105.225 134.465 105.946 134.291" stroke="var(--color-blue-light, #e5eaff)" stroke-width="1.5" stroke-miterlimit="10" stroke-linecap="round" stroke-linejoin="round" fill="none"/>
<path d="M163.678 156.267C163.459 156.821 163.241 157.485 162.912 158.149" stroke="var(--color-blue-light, #e5eaff)" stroke-width="1.5" stroke-miterlimit="10" stroke-linecap="round" stroke-linejoin="round" fill="none"/>
<path d="M112.924 135.033C112.432 135.368 111.879 135.795 111.234 136.161" stroke="var(--color-blue-light, #e5eaff)" stroke-width="1.5" stroke-miterlimit="10" stroke-linecap="round" stroke-linejoin="round" fill="none"/>
<path d="M169.858 156.369C170.217 155.894 170.604 155.312 171.099 154.76" stroke="var(--color-blue-light, #e5eaff)" stroke-width="1.5" stroke-miterlimit="10" stroke-linecap="round" stroke-linejoin="round" fill="none"/>
<path d="M138.438 125.674C138.221 125.948 137.797 126.147 137.655 126.213" stroke="var(--color-blue-light, #e5eaff)" stroke-width="1.5" stroke-miterlimit="10" stroke-linecap="round" stroke-linejoin="round" fill="none"/>
<path d="M145.319 114.765C144.885 115.313 144.244 115.786 143.811 116.335" stroke="var(--color-blue-light, #e5eaff)" stroke-width="1.5" stroke-miterlimit="10" stroke-linecap="round" stroke-linejoin="round" fill="none"/>
<path d="M115.582 129.097C115.029 129.524 114.292 129.828 113.739 130.255" stroke="var(--color-blue-light, #e5eaff)" stroke-width="1.5" stroke-miterlimit="10" stroke-linecap="round" stroke-linejoin="round" fill="none"/>
<path d="M141.341 118.615C141.087 118.993 140.729 119.334 140.238 119.391" stroke="var(--color-blue-light, #e5eaff)" stroke-width="1.5" stroke-miterlimit="10" stroke-linecap="round" stroke-linejoin="round" fill="none"/>
<path d="M110.79 131.868C110.452 132.173 110.022 132.416 109.532 132.353" stroke="var(--color-blue-light, #e5eaff)" stroke-width="1.5" stroke-miterlimit="10" stroke-linecap="round" stroke-linejoin="round" fill="none"/>
<path d="M137.119 122.494C136.582 123.005 136.045 123.516 135.441 123.886" stroke="var(--color-blue-light, #e5eaff)" stroke-width="1.5" stroke-miterlimit="10" stroke-linecap="round" stroke-linejoin="round" fill="none"/>
<path d="M131.82 126.102C131.15 126.33 130.546 126.699 129.98 126.965" stroke="var(--color-blue-light, #e5eaff)" stroke-width="1.5" stroke-miterlimit="10" stroke-linecap="round" stroke-linejoin="round" fill="none"/>
<path d="M157.585 170.852C158.147 170.422 158.601 169.879 159.052 169.447" stroke="var(--color-blue-light, #e5eaff)" stroke-width="1.5" stroke-miterlimit="10" stroke-linecap="round" stroke-linejoin="round" fill="none"/>
<path d="M108.169 136.739C107.499 136.967 106.896 137.337 106.33 137.602" stroke="var(--color-blue-light, #e5eaff)" stroke-width="1.5" stroke-miterlimit="10" stroke-linecap="round" stroke-linejoin="round" fill="none"/>
<path d="M127.111 128.861C126.895 129.135 126.574 129.371 126.121 129.325" stroke="var(--color-blue-light, #e5eaff)" stroke-width="1.5" stroke-miterlimit="10" stroke-linecap="round" stroke-linejoin="round" fill="none"/>
<path d="M159.285 166.788C159.403 166.459 159.631 166.132 160.075 166.031" stroke="var(--color-blue-light, #e5eaff)" stroke-width="1.5" stroke-miterlimit="10" stroke-linecap="round" stroke-linejoin="round" fill="none"/>
<path d="M103.301 138.505C103.084 138.779 102.763 139.016 102.31 138.969" stroke="var(--color-blue-light, #e5eaff)" stroke-width="1.5" stroke-miterlimit="10" stroke-linecap="round" stroke-linejoin="round" fill="none"/>
<path d="M152.182 104.554C150.804 105.114 150.024 106.947 148.713 107.648" stroke="var(--color-blue-light, #e5eaff)" stroke-width="1.5" stroke-miterlimit="10" stroke-linecap="round" stroke-linejoin="round" fill="none"/>
<path d="M124.717 120.856C123.245 121.065 122.043 122.654 120.601 123.016" stroke="var(--color-blue-light, #e5eaff)" stroke-width="1.5" stroke-miterlimit="10" stroke-linecap="round" stroke-linejoin="round" fill="none"/>
<path d="M145.658 109.599C145.12 110.11 144.479 110.584 143.942 111.094" stroke="var(--color-blue-light, #e5eaff)" stroke-width="1.5" stroke-miterlimit="10" stroke-linecap="round" stroke-linejoin="round" fill="none"/>
<path d="M140.266 114.113C139.625 114.587 138.984 115.06 138.276 115.392" stroke="var(--color-blue-light, #e5eaff)" stroke-width="1.5" stroke-miterlimit="10" stroke-linecap="round" stroke-linejoin="round" fill="none"/>
<path d="M135.128 118.25C134.279 118.648 133.629 119.47 132.619 119.34" stroke="var(--color-blue-light, #e5eaff)" stroke-width="1.5" stroke-miterlimit="10" stroke-linecap="round" stroke-linejoin="round" fill="none"/>
<path d="M154.183 179.369C154.86 178.721 155.213 177.733 156.212 177.534" stroke="var(--color-blue-light, #e5eaff)" stroke-width="1.5" stroke-miterlimit="10" stroke-linecap="round" stroke-linejoin="round" fill="none"/>
<path d="M111.622 127.573C110.774 127.971 110.124 128.794 109.113 128.664" stroke="var(--color-blue-light, #e5eaff)" stroke-width="1.5" stroke-miterlimit="10" stroke-linecap="round" stroke-linejoin="round" fill="none"/>
<path d="M128.809 122.076C128.451 122.417 127.781 122.645 127.187 122.665" stroke="var(--color-blue-light, #e5eaff)" stroke-width="1.5" stroke-miterlimit="10" stroke-linecap="round" stroke-linejoin="round" fill="none"/>
<path d="M160.986 172.221C161.217 171.784 161.779 171.354 162.336 171.145" stroke="var(--color-blue-light, #e5eaff)" stroke-width="1.5" stroke-miterlimit="10" stroke-linecap="round" stroke-linejoin="round" fill="none"/>
<path d="M89.4764 141.804C89.1183 142.145 88.4484 142.373 87.8537 142.393" stroke="var(--color-blue-light, #e5eaff)" stroke-width="1.5" stroke-miterlimit="10" stroke-linecap="round" stroke-linejoin="round" fill="none"/>
<path d="M168.804 140.503C168.92 140.984 168.781 141.677 168.5 142.202" stroke="var(--color-blue-light, #e5eaff)" stroke-width="1.5" stroke-miterlimit="10" stroke-linecap="round" stroke-linejoin="round" fill="none"/>
<path d="M159.45 175.368C159.565 175.849 159.427 176.543 159.146 177.068" stroke="var(--color-blue-light, #e5eaff)" stroke-width="1.5" stroke-miterlimit="10" stroke-linecap="round" stroke-linejoin="round" fill="none"/>
<path d="M140.117 110.299C139.496 111.367 137.731 112.022 136.467 112.27" stroke="var(--color-blue-light, #e5eaff)" stroke-width="1.5" stroke-miterlimit="10" stroke-linecap="round" stroke-linejoin="round" fill="none"/>
<path d="M132.903 114.977C132.262 115.451 131.517 115.887 130.648 115.69" stroke="var(--color-blue-light, #e5eaff)" stroke-width="1.5" stroke-miterlimit="10" stroke-linecap="round" stroke-linejoin="round" fill="none"/>
<path d="M127.081 117.104C126.478 117.473 125.704 117.663 125.222 117.372" stroke="var(--color-blue-light, #e5eaff)" stroke-width="1.5" stroke-miterlimit="10" stroke-linecap="round" stroke-linejoin="round" fill="none"/>
<path d="M149.821 109.459C149.454 110.149 148.851 110.518 148.314 111.029" stroke="var(--color-blue-light, #e5eaff)" stroke-width="1.5" stroke-miterlimit="10" stroke-linecap="round" stroke-linejoin="round" fill="none"/>
<path d="M121.237 125.042C120.714 125.622 120.039 125.834 119.394 126.2" stroke="var(--color-blue-light, #e5eaff)" stroke-width="1.5" stroke-miterlimit="10" stroke-linecap="round" stroke-linejoin="round" fill="none"/>
<path d="M165.174 168.493C165.485 167.776 166.056 167.359 166.551 166.807" stroke="var(--color-blue-light, #e5eaff)" stroke-width="1.5" stroke-miterlimit="10" stroke-linecap="round" stroke-linejoin="round" fill="none"/>
<g clip-path="url(#clip1_4227_4306)">
<path d="M416.965 100.66C416.633 100.66 416.19 100.55 415.858 100.55C415.415 100.55 414.861 100.55 414.419 100.55C413.422 100.55 412.537 100.55 411.541 100.66C410.434 100.881 409.438 101.102 408.331 101.212C407.113 101.212 406.006 101.212 404.788 101.102C401.468 100.992 398.036 100.771 394.715 101.102C392.059 101.323 389.402 101.323 386.745 101.544C383.535 101.765 380.215 101.323 377.005 101.765C375.787 101.875 374.569 101.875 373.352 102.206C371.359 102.427 369.477 102.317 367.485 102.427C364.164 102.538 360.954 103.09 357.633 103.09C355.973 103.09 354.313 103.09 352.541 103.09C349.995 103.09 347.45 103.2 344.904 102.869C342.69 102.538 340.587 102.427 338.373 102.427C334.056 102.427 329.739 102.758 325.532 102.427C324.758 102.317 323.983 102.427 323.097 102.427C322.433 102.427 321.769 102.317 321.105 102.206C320.33 102.096 319.334 102.206 318.669 101.875C318.559 101.433 318.669 100.992 318.559 100.66C318.448 100.329 318.448 99.8871 318.337 99.4454C318.116 98.1201 318.005 96.9053 318.005 95.5801C318.005 90.7209 318.227 85.6408 318.227 80.7816C320.994 80.4502 322.654 80.3398 325.422 80.0085C326.197 80.0085 326.861 79.8981 327.636 80.0085C329.517 80.0085 331.399 79.8981 333.392 79.7876C337.487 79.4563 341.583 79.125 345.678 78.7937C347.339 78.6833 349.11 78.6833 350.77 78.6833C352.32 78.6833 353.759 78.4624 355.198 78.4624C359.515 78.1311 364.053 77.7998 368.26 78.3519C369.809 78.5728 371.359 78.6833 372.909 78.9041C374.901 79.125 377.115 78.9041 379.218 78.9041C381.875 78.9041 384.642 78.7937 387.41 78.9041C389.513 78.9041 391.616 78.7937 393.719 79.0146C397.483 79.5667 401.8 77.7998 405.563 79.0146C407.888 79.7876 409.438 78.9041 411.873 79.125C412.758 79.2354 413.644 79.3459 414.529 79.6772C414.972 79.7876 414.861 79.8981 415.083 80.1189C415.415 80.3398 415.747 80.3398 415.858 80.7816C415.968 81.2233 415.968 81.665 415.968 82.1068C415.968 83.1007 416.3 87.4078 416.3 88.4017C416.3 89.3956 416.19 90.6104 416.3 91.7148C416.411 92.4879 416.633 93.2609 416.633 94.034C416.854 96.3532 416.3 98.7828 416.743 101.102C416.743 100.992 416.854 100.881 416.965 100.66Z" fill="var(--color-brand, #e4002b)" stroke="var(--color-N600, #0f1e57)" stroke-width="2" stroke-miterlimit="10" stroke-linejoin="round"/>
<path d="M330.735 85.1991C329.407 85.5304 328.521 85.5304 327.636 86.4139C327.414 86.6347 327.303 86.8556 327.082 86.9661C326.75 87.4078 326.418 87.96 326.197 88.6226C325.754 89.727 325.532 90.8313 325.532 91.9357C325.532 93.1505 326.529 94.1445 327.193 95.028C327.525 95.4697 327.968 95.9114 328.521 96.2428C328.964 96.5741 329.517 96.6845 330.071 96.7949C331.067 97.0158 332.395 97.2367 333.281 96.9054C334.388 96.4636 335.273 95.6906 335.938 94.5862C337.266 92.8192 337.709 89.8374 336.491 87.96C335.716 86.8556 334.72 86.0826 333.613 85.6408C333.059 85.5304 332.506 85.4199 331.953 85.4199C331.51 85.1991 331.067 85.1991 330.735 85.1991Z" fill="white" stroke="var(--color-N600, #0f1e57)" stroke-width="2" stroke-miterlimit="10" stroke-linejoin="round"/>
<path d="M436.004 48.534C435.672 48.534 435.229 48.6444 434.897 48.6444C434.454 48.6444 433.901 48.6444 433.458 48.6444C432.462 48.6444 431.576 48.6444 430.58 48.534C429.473 48.4235 428.477 48.0922 427.259 47.9818C426.041 47.9818 424.824 47.9818 423.717 48.0922C420.285 48.2027 416.854 48.4235 413.422 48.0922C410.766 47.8713 407.998 47.8713 405.342 47.6505C402.021 47.4296 398.7 47.8713 395.49 47.4296C394.162 47.4296 392.944 47.4296 391.727 47.2087C389.734 46.8774 387.742 46.9879 385.749 46.9879C382.428 46.8774 379.661 47.0983 376.34 46.9879C374.68 46.9879 371.802 46.9879 370.031 46.9879C367.485 46.9879 365.382 46.2148 362.725 46.5461C360.511 46.8774 358.297 46.9879 356.084 46.9879C351.767 46.9879 347.339 46.6565 343.022 46.9879C342.247 47.0983 341.694 47.0983 340.919 47.0983C340.255 47.0983 339.258 47.0983 338.594 47.2087C337.819 47.3192 336.823 47.2087 336.048 47.54C335.937 47.8713 336.048 48.4235 335.937 48.7548C335.827 49.0862 335.716 49.4175 335.716 49.8592C335.495 51.074 335.384 52.2888 335.384 53.5036C335.384 58.0315 336.048 62.3386 336.048 66.8665C338.816 67.1978 340.033 67.75 342.8 68.0813C343.575 68.1917 344.35 68.1917 345.014 68.0813C347.007 68.0813 348.889 68.1917 350.881 68.3022C355.087 68.6335 359.183 68.9648 363.389 69.1857C365.271 69.2961 366.931 69.2961 368.703 69.2961C370.252 69.2961 371.691 69.4065 373.241 69.517C377.669 69.8483 381.764 68.8544 386.081 68.4126C387.631 68.1917 389.623 68.4126 391.173 68.3022C393.276 68.0813 395.49 69.1857 397.593 69.1857C400.361 69.1857 403.128 69.2961 405.895 69.1857C407.998 69.1857 410.102 69.2961 412.316 69.0752C416.19 68.6335 420.617 70.1796 424.381 69.0752C426.706 68.4126 428.366 69.1857 430.801 68.9648C431.687 68.8544 432.572 68.7439 433.458 68.4126C433.901 68.3022 433.79 68.1917 434.122 67.9709C434.454 67.75 434.786 67.75 435.008 67.3082C435.118 66.8665 435.118 66.4247 435.118 66.0934C435.118 65.2099 435.45 61.1238 435.45 60.2403C435.45 59.2463 435.34 58.142 435.45 57.148C435.561 56.375 435.782 55.7124 435.782 54.9393C436.004 52.841 435.45 50.4114 435.893 48.3131C435.782 48.3131 435.893 48.3131 436.004 48.534Z" fill="#6A9DFF"/>
<path d="M348.224 52.841C346.785 53.1724 345.9 53.0619 345.014 54.0559C344.793 54.2767 344.682 54.3872 344.461 54.608C344.129 55.0498 343.797 55.602 343.575 56.1542C343.243 57.1481 343.022 58.2525 343.022 59.3568C343.022 60.4612 344.018 61.4551 344.682 62.2282C345.014 62.6699 345.457 63.1117 346.011 63.3326C346.564 63.5534 347.117 63.7743 347.671 63.8847C348.667 63.9952 349.995 64.3265 350.992 63.9952C352.099 63.5534 352.984 62.7804 353.759 61.8969C355.087 60.2403 355.53 57.4794 354.312 55.602C353.538 54.608 352.541 53.835 351.434 53.3932C350.881 53.2828 350.328 53.1724 349.774 53.1724C349.11 52.9515 348.667 52.841 348.224 52.841Z" fill="white" stroke="var(--color-N600, #0f1e57)" stroke-width="2" stroke-miterlimit="10" stroke-linecap="round" stroke-linejoin="round"/>
<path d="M435.893 48.3131C435.561 48.3131 435.118 48.3131 434.786 48.4236C434.343 48.4236 433.79 48.4236 433.347 48.4236C432.351 48.4236 431.465 48.4236 430.469 48.3131C429.362 48.0922 428.366 47.8714 427.148 47.7609C425.931 47.7609 424.713 47.7609 423.606 47.8714C420.175 47.9818 416.743 48.2027 413.312 47.8714C410.655 47.6505 407.888 47.6505 405.231 47.4296C401.91 47.2087 398.59 47.6505 395.38 47.2087C394.162 47.0983 392.834 47.0983 391.616 46.8774C389.623 46.5461 387.631 46.6566 385.639 46.6566C382.318 46.5461 378.997 46.1044 375.676 45.9939C374.016 45.9939 372.245 45.9939 370.584 45.9939C368.038 45.9939 365.382 45.8835 362.836 46.2148C360.622 46.5461 358.408 46.6566 356.194 46.6566C351.877 46.6566 347.45 46.3253 343.133 46.6566C342.358 46.767 341.472 46.6566 340.697 46.6566C340.033 46.6566 339.369 46.767 338.705 46.8774C337.93 46.9879 336.934 46.8774 336.159 47.2087C336.048 47.5401 336.159 47.9818 336.048 48.4236C335.937 48.7549 335.827 49.0862 335.827 49.5279C335.495 50.8532 335.384 52.068 335.384 53.2828C335.384 57.8107 335.605 62.5595 335.605 67.1978C338.373 67.5291 340.144 67.5291 342.911 67.9709C343.686 68.0813 344.461 68.0813 345.125 67.9709C347.117 67.9709 348.999 68.0813 350.992 68.1918C355.198 68.5231 359.294 68.8544 363.5 69.0753C365.16 69.1857 366.931 69.1857 368.703 69.1857C370.252 69.1857 371.691 69.2961 373.241 69.4066C377.669 69.7379 382.207 69.9587 386.524 69.517C388.074 69.2961 389.734 69.1857 391.173 69.0753C393.276 68.8544 395.49 69.0753 397.593 69.0753C400.361 69.0753 403.128 69.1857 405.895 69.0753C407.998 69.0753 410.102 69.1857 412.316 68.9648C416.19 68.5231 420.617 70.0692 424.381 68.9648C426.706 68.3022 428.366 69.0753 430.801 68.8544C431.687 68.7439 432.572 68.6335 433.458 68.3022C433.901 68.1918 433.79 68.0813 434.122 67.8604C434.454 67.6396 434.786 67.6396 435.008 67.1978C435.118 66.7561 435.118 66.4248 435.118 65.983C435.118 65.0995 435.45 61.0134 435.45 60.1299C435.45 59.1359 435.34 58.0316 435.45 57.0376C435.561 56.2646 435.782 55.602 435.782 54.8289C436.004 52.7306 435.45 50.301 435.893 48.2027C435.782 48.0922 435.782 48.0922 435.893 48.3131Z" stroke="var(--color-N600, #0f1e57)" stroke-width="2" stroke-miterlimit="10" stroke-linecap="round" stroke-linejoin="round" fill="none"/>
<path d="M346.564 57.9211C347.007 58.3629 347.45 58.8046 347.892 59.2463C348.003 59.3568 348.114 59.4672 348.224 59.6881C348.335 59.7985 348.335 60.0194 348.446 60.0194C348.667 60.1298 349.221 59.5777 349.442 59.4672C349.885 59.1359 350.438 58.8046 350.881 58.4733C351.324 58.142 351.767 57.7002 352.099 57.2585C353.206 56.4854 354.202 55.6019 355.198 54.7184C355.641 54.1663 356.194 53.7245 356.858 53.5036" stroke="var(--color-N600, #0f1e57)" stroke-width="2" stroke-miterlimit="10" stroke-linecap="round" fill="none"/>
<path d="M291.55 132.797C291.882 132.797 292.325 132.687 292.657 132.687C293.099 132.687 293.653 132.687 294.096 132.687C295.092 132.687 295.977 132.687 296.974 132.797C298.081 132.908 299.077 133.239 300.294 133.35C301.512 133.35 302.73 133.35 303.837 133.239C307.268 133.129 310.7 132.908 314.131 133.239C316.788 133.46 319.555 133.46 322.212 133.681C325.532 133.902 328.853 133.46 332.063 133.902C333.281 134.012 334.609 134.012 335.827 134.233C337.819 134.564 339.812 134.454 341.804 134.454C345.125 134.564 347.892 134.343 351.213 134.454C352.873 134.454 355.751 134.454 357.523 134.454C360.069 134.454 362.172 135.227 364.828 134.896C367.042 134.564 369.256 134.454 371.47 134.454C375.787 134.454 380.215 134.785 384.532 134.454C385.306 134.343 385.86 134.343 386.635 134.343C387.299 134.343 388.295 134.343 388.959 134.233C389.734 134.123 390.73 134.233 391.505 133.902C391.616 133.46 391.505 133.018 391.616 132.687C391.727 132.356 391.837 132.024 391.837 131.583C392.059 130.368 392.169 129.153 392.169 127.938C392.169 123.41 391.505 119.103 391.505 114.575C388.738 114.244 387.52 113.692 384.753 113.36C383.978 113.25 383.203 113.25 382.539 113.36C380.547 113.36 378.665 113.25 376.672 113.14C372.466 112.808 368.37 112.477 364.164 112.146C362.504 112.035 360.733 112.035 358.962 112.146C357.412 112.146 355.973 112.035 354.423 111.925C349.995 111.593 345.9 112.587 341.583 113.029C340.033 113.25 338.041 113.029 336.491 113.14C334.388 113.36 332.174 112.256 330.071 112.256C327.303 112.256 324.536 112.146 321.769 112.256C319.666 112.256 317.562 112.146 315.349 112.367C311.474 112.808 307.047 111.262 303.283 112.367C300.959 113.029 299.298 112.256 296.863 112.477C295.977 112.587 295.092 112.698 294.206 112.919C293.764 113.029 293.874 113.14 293.542 113.36C293.21 113.581 292.878 113.581 292.657 114.023C292.546 114.465 292.546 114.907 292.546 115.238C292.546 116.232 292.214 120.208 292.214 121.201C292.214 122.195 292.325 123.3 292.214 124.294C292.103 125.067 291.882 125.729 291.882 126.502C291.66 128.601 292.214 131.03 291.771 133.129C291.66 133.129 291.66 133.018 291.55 132.797Z" fill="#6A9DFF"/>
<path d="M304.611 117.999C303.172 118.33 302.287 118.22 301.401 119.214C301.18 119.434 301.069 119.545 300.848 119.766C300.516 120.208 300.184 120.76 299.962 121.312C299.63 122.306 299.409 123.41 299.409 124.515C299.409 125.619 300.405 126.613 301.069 127.386C301.401 127.828 301.844 128.269 302.398 128.49C302.951 128.711 303.505 128.932 304.058 129.042C305.054 129.153 306.383 129.484 307.379 129.153C308.486 128.711 309.371 127.938 310.146 127.055C311.474 125.398 311.917 122.637 310.7 120.76C309.925 119.766 308.928 118.993 307.822 118.551C307.268 118.441 306.715 118.33 306.161 118.33C305.497 118.109 305.054 117.999 304.611 117.999Z" fill="white" stroke="var(--color-N600, #0f1e57)" stroke-width="2" stroke-miterlimit="10"/>
<path d="M291.771 132.576C292.103 132.576 292.546 132.576 292.878 132.466C293.321 132.466 293.874 132.466 294.317 132.466C295.313 132.466 296.199 132.466 297.195 132.576C298.302 132.687 299.298 133.018 300.516 133.129C301.733 133.129 302.951 133.129 304.058 133.018C307.489 132.908 310.921 132.687 314.352 133.018C317.009 133.239 319.776 133.239 322.433 133.46C325.754 133.681 329.075 133.239 332.285 133.681C333.502 133.791 334.831 133.791 336.048 134.012C338.041 134.343 340.033 134.233 342.026 134.233C345.346 134.343 348.667 134.785 351.988 134.896C353.648 134.896 355.419 134.896 357.08 134.896C359.626 134.896 362.282 135.006 364.828 134.675C367.042 134.343 369.256 134.233 371.47 134.233C375.787 134.233 380.215 134.564 384.532 134.233C385.306 134.123 386.192 134.233 386.967 134.233C387.631 134.233 388.295 134.123 388.959 134.012C389.734 133.902 390.73 134.012 391.505 133.681C391.616 133.239 391.505 132.797 391.616 132.466C391.727 132.135 391.837 131.803 391.837 131.362C392.059 130.147 392.169 128.932 392.169 127.717C392.169 123.189 391.948 118.441 391.948 113.802C389.181 113.471 387.41 113.471 384.642 113.029C383.867 112.919 383.093 112.919 382.428 113.029C380.436 113.029 378.554 112.919 376.562 112.808C372.355 112.477 368.26 112.146 364.053 111.925C362.393 111.814 360.622 111.814 358.851 111.814C357.301 111.814 355.862 111.704 354.312 111.593C349.885 111.262 345.346 111.041 341.029 111.483C339.48 111.704 337.819 111.814 336.38 111.925C334.277 112.146 332.063 111.925 329.96 111.925C327.193 111.925 324.425 111.814 321.658 111.925C319.555 111.925 317.452 111.814 315.238 112.035C311.364 112.477 306.936 110.931 303.172 112.035C300.848 112.698 299.188 111.925 296.752 112.146C295.867 112.256 294.981 112.367 294.096 112.587C293.653 112.698 293.764 112.808 293.431 113.029C293.431 113.471 293.099 113.471 292.878 113.802C292.767 114.244 292.767 114.686 292.767 115.017C292.767 116.011 292.435 119.987 292.435 120.87C292.435 121.864 292.546 122.968 292.435 123.962C292.325 124.735 292.103 125.398 292.103 126.171C291.882 128.269 292.435 130.699 291.992 132.797C291.882 132.908 291.882 132.797 291.771 132.576Z" stroke="var(--color-N600, #0f1e57)" stroke-width="2" stroke-miterlimit="10" fill="none"/>
<path d="M302.951 123.079C303.394 123.521 303.837 123.962 304.279 124.404C304.39 124.515 304.501 124.625 304.611 124.846C304.722 124.956 304.722 125.177 304.833 125.177C305.054 125.288 305.608 124.735 305.829 124.625C306.272 124.294 306.825 123.962 307.268 123.631C307.711 123.3 308.154 122.858 308.486 122.416C309.593 121.643 310.589 120.76 311.585 119.876C312.028 119.324 312.581 118.882 313.245 118.661" stroke="var(--color-N600, #0f1e57)" stroke-width="2" stroke-miterlimit="10" stroke-linecap="round" fill="none"/>
<path d="M329.407 87.6287C329.628 87.6287 329.739 87.8495 329.849 87.96C329.96 88.1809 330.181 88.4017 330.403 88.6226C330.735 88.9539 331.067 89.3957 331.399 89.727C331.731 90.1687 332.063 90.3896 332.395 90.8313C332.506 90.9418 332.506 90.9418 332.506 91.0522C332.617 91.1626 332.727 91.2731 332.838 91.2731C332.949 91.3835 333.17 91.6044 333.281 91.7148C333.613 92.0461 333.945 92.4879 334.277 92.8192C334.388 93.0401 334.609 93.1505 334.72 93.2609C334.831 93.3714 335.052 93.4818 335.163 93.5923C335.052 93.4818 335.052 93.4818 334.941 93.4818" stroke="var(--color-N600, #0f1e57)" stroke-width="2" stroke-miterlimit="10" stroke-linecap="round" stroke-linejoin="round" fill="none"/>
<path d="M328.521 93.9236C328.964 93.7027 329.185 93.261 329.517 92.9297C329.849 92.5983 330.181 92.267 330.514 91.9357C330.735 91.8253 330.846 91.7148 331.067 91.494C331.178 91.3835 331.178 91.3835 331.178 91.2731C331.288 91.1627 331.288 91.1627 331.399 91.0522C331.51 90.9418 331.51 90.8314 331.62 90.8314C331.731 90.7209 331.842 90.7209 331.953 90.6105C332.063 90.3896 332.063 90.3896 332.063 90.2792C332.174 90.1687 332.174 90.1687 332.285 90.0583C332.617 89.727 332.838 89.3957 333.059 89.0644C333.281 88.7331 333.502 88.5122 333.724 88.2913C333.834 88.1809 333.834 88.1809 333.945 88.0704C334.056 87.96 334.056 87.96 334.166 87.8496C334.277 87.7391 334.498 87.5183 334.72 87.4078C334.609 87.6287 334.388 87.7391 334.277 87.96" stroke="var(--color-N600, #0f1e57)" stroke-width="2" stroke-miterlimit="10" stroke-linecap="round" stroke-linejoin="round" fill="none"/>
</g>
<path d="M60.5946 291.344C61.1695 289.803 62.4006 282.065 61.9258 280.551" stroke="#6A9DFF" stroke-width="2" stroke-miterlimit="10" stroke-linecap="round" stroke-linejoin="round" fill="none"/>
<path d="M61.0894 269.497C60.2296 268.339 60.1224 262.646 60.128 261.492" stroke="#6A9DFF" stroke-width="2" stroke-miterlimit="10" stroke-linecap="round" stroke-linejoin="round" fill="none"/>
<path d="M59.6785 245.022C59.8373 241.994 59.7063 239.253 59.4304 236.655" stroke="#6A9DFF" stroke-width="2" stroke-miterlimit="10" stroke-linecap="round" stroke-linejoin="round" fill="none"/>
<path d="M60.5373 216.457C61.1288 213.431 61.8639 210.55 63.4637 207.817" stroke="#6A9DFF" stroke-width="2" stroke-miterlimit="10" stroke-linecap="round" stroke-linejoin="round" fill="none"/>
<path d="M94.5609 171.821C93.1125 171.764 86.996 175.748 86.0232 176.385" stroke="#6A9DFF" stroke-width="2" stroke-miterlimit="10" stroke-linecap="round" stroke-linejoin="round" fill="none"/>
<path d="M71.4453 194.103C71.1401 193.998 71.14 193.998 70.9778 193.874C70.8431 192.874 72.0334 191.986 72.5474 191.48C73.3747 190.059 73.9353 188.819 74.8396 187.969C75.458 187.158 76.3623 186.309 77.2859 185.602" stroke="#6A9DFF" stroke-width="2" stroke-miterlimit="10" stroke-linecap="round" stroke-linejoin="round" fill="none"/>
<path d="M90.4658 52.2529C90.3829 52.3097 90.3 52.3097 90.1895 52.3097C90.1343 52.2529 90.3277 52.2245 90.3277 52.3097C90.3277 52.3949 90.2448 52.4516 90.1619 52.48C86.4046 53.7296 81.9291 52.3381 78.0613 52.3097C77.4259 52.3097 76.7629 52.3664 76.1274 52.3664C75.5749 52.3664 75.0224 52.4233 74.4422 52.4233C73.8068 52.3949 73.1714 52.5085 72.5359 52.4517C71.9282 52.3949 71.348 52.3949 70.7402 52.3949C70.0495 52.3949 69.3865 52.3664 68.6958 52.3664C63.8058 52.3096 58.6396 51.8269 53.7773 52.3097C53.4734 52.3381 53.2247 52.3097 52.9209 52.2813C52.6446 52.2529 52.3683 52.338 52.0644 52.338C51.4842 52.3664 50.8765 52.3381 50.2963 52.2813C50.02 52.2245 49.7161 52.2813 49.4399 52.2529C49.136 52.2529 48.8321 52.1961 48.5282 52.1677C48.0033 52.1109 47.5336 52.0257 47.0087 52.0257C46.7324 52.0257 46.4838 52.0257 46.1799 51.9689C45.9865 51.9121 45.7931 51.9689 45.5721 51.8837C45.2406 51.7701 44.8538 51.5713 44.5775 51.3441C42.8094 49.8957 42.3674 46.6866 44.0802 44.9259C44.1631 44.8407 44.246 44.7839 44.3565 44.6987C44.5223 44.5283 44.7157 44.3863 44.8814 44.2443C45.1577 44.0171 45.5168 43.9319 45.8207 43.7615C47.2573 43.1083 48.2519 43.1083 49.7714 43.2503C49.8266 43.2503 49.9095 43.2503 49.9648 43.2503C49.9924 43.2503 50.1305 43.3071 50.1582 43.3071C50.2963 43.2503 50.2963 43.0799 50.2687 42.9663C50.2134 42.6823 50.0477 42.512 49.8819 42.3132C49.5504 41.8588 49.136 41.4044 49.0254 40.8364C48.9978 40.7512 49.0254 40.6376 49.0254 40.5524C48.9978 40.4388 48.9702 40.3252 48.9702 40.1832C48.9702 40.0412 48.915 39.9276 48.915 39.814C48.915 39.5868 48.9702 39.3596 48.9702 39.1324C48.9702 38.6213 48.9149 38.1101 48.9978 37.5989C49.2741 35.0714 50.1305 32.6006 52.0644 30.9251C53.501 29.6755 55.6835 28.426 57.5898 28.0852C57.7279 28.0568 57.8661 28.0852 58.0042 28.0568C58.1423 28.0284 58.2805 28 58.391 28C58.7501 28 59.054 28.0568 59.3855 28.0852C63.9992 28.6248 67.3145 31.3227 69.1102 35.6678C69.3036 36.179 69.6351 36.6901 69.6627 37.2581C69.6627 37.4285 69.6351 37.5989 69.5522 37.7409C70.2153 36.8321 70.6297 36.463 71.8729 36.3494C74.1107 36.1506 76.7076 36.6333 78.2823 38.4225C78.4481 38.5929 78.5586 38.8485 78.752 39.0473C79.0559 39.3597 79.2769 39.7288 79.4703 40.1548C79.7466 40.6944 79.8571 41.2624 80.1057 41.8588C80.603 43.2219 80.7688 44.4999 80.2991 45.8631C80.4925 45.9483 80.6859 46.0335 80.8793 46.1471C81.4042 46.431 81.9567 46.573 82.454 46.8002C84.0011 47.425 85.6864 47.709 87.1782 48.5894C87.3716 48.703 87.565 48.8166 87.786 48.9302C88.0346 49.0721 88.228 49.2425 88.4767 49.3845C89.2502 49.7821 90.6316 50.2081 90.9907 51.1169C91.046 51.4861 90.8526 52.0825 90.4658 52.2529Z" fill="var(--color-N600, #0f1e57)"/>
<path d="M246.304 337.803C246.023 336.531 245.867 334.575 245.18 333.427C244.993 333.116 244.805 332.868 244.618 332.589C244.244 332.03 243.931 331.44 243.557 330.82C242.683 329.33 241.497 328.181 240.092 327.499C237.314 326.04 234.598 325.667 231.601 326.288C228.635 326.847 225.888 328.554 223.734 331.13C222.923 332.154 222.111 333.458 221.986 334.886C221.893 335.91 221.58 336.779 221.424 337.741C220.738 335.972 217.991 336.065 216.68 335.941C215.556 335.848 214.682 336.313 213.589 336.717C212.59 337.058 211.622 337.586 210.873 338.424C209.781 339.572 208.438 341.124 207.877 342.738C207.627 343.359 207.627 343.98 207.002 344.011C206.69 344.011 206.472 343.855 206.16 343.793C205.879 343.731 205.629 343.793 205.317 343.762C203.537 343.545 201.384 344.011 200.104 345.718C199.479 346.587 198.793 348.449 197.762 348.697C197.076 348.852 196.233 348.728 195.546 348.759C194.641 348.79 193.736 348.977 192.893 349.256C192.393 349.442 189.74 349.97 190.021 351.087C190.177 351.677 191.176 352.111 191.582 352.204C192.955 352.515 194.391 352.453 195.765 352.546C197.825 352.701 199.854 352.453 201.945 352.298C203.163 352.204 204.38 352.422 205.598 352.36C206.878 352.298 208.126 352.608 209.469 352.577C211.435 352.515 213.402 352.608 215.368 352.546C217.835 352.484 220.176 352.391 222.642 352.701C223.953 352.856 225.264 352.515 226.575 352.701C227.106 352.794 227.668 352.825 228.23 352.825L231.289 352.701C232.288 352.67 233.255 352.825 234.254 352.949C235.503 353.105 236.876 352.856 238.188 352.825C240.123 352.763 242.09 352.639 244.025 352.484C246.179 352.329 248.239 351.677 250.393 351.863C251.642 351.956 253.234 352.204 254.42 351.77C254.763 351.646 255.575 351.429 255.887 351.18C256.293 350.808 256.636 349.38 256.73 348.821C257.167 346.338 257.136 343.98 256.168 341.714C255.419 339.945 254.92 338.61 253.608 337.4C253.171 336.996 252.672 336.655 252.173 336.375C251.673 336.127 251.174 336.313 250.643 336.282C249.863 336.251 249.238 336.003 248.489 336.468C248.27 336.593 248.083 336.779 247.896 336.872C247.584 337.058 247.365 337.058 247.084 337.182C246.741 337.275 246.554 337.648 246.304 337.803Z" fill="var(--color-N600, #0f1e57)"/>
</g>
<defs>
<clipPath id="clip0_4227_4306">
<rect width="464" height="384" fill="white"/>
</clipPath>
<clipPath id="clip1_4227_4306">
<rect width="147" height="91" fill="white" transform="translate(290 45)"/>
</clipPath>
</defs>
</svg>