<svg width="24" height="24" viewBox="0 0 24 24" fill="none" xmlns="http://www.w3.org/2000/svg">
<path d="M7.9375 13.125V8.625" stroke="#0F1E57" stroke-linecap="round" stroke-linejoin="round"/>
<path d="M7.9375 18.1875V15.375" stroke="#0F1E57" stroke-linecap="round" stroke-linejoin="round"/>
<path d="M12.4375 10.875V8.625" stroke="#0F1E57" stroke-linecap="round" stroke-linejoin="round"/>
<path d="M12.4375 18.1875V13.125" stroke="#0F1E57" stroke-linecap="round" stroke-linejoin="round"/>
<path d="M16.9375 13.125V8.625" stroke="#0F1E57" stroke-linecap="round" stroke-linejoin="round"/>
<path d="M16.9375 18.1875V15.375" stroke="#0F1E57" stroke-linecap="round" stroke-linejoin="round"/>
<path d="M4 3.5625H20.875V20.4375H4V3.5625Z" stroke="#0F1E57" stroke-linecap="round" stroke-linejoin="round"/>
<path d="M6.8125 14.25C6.8125 14.5484 6.93103 14.8345 7.142 15.0455C7.35298 15.2565 7.63913 15.375 7.9375 15.375C8.23587 15.375 8.52202 15.2565 8.733 15.0455C8.94397 14.8345 9.0625 14.5484 9.0625 14.25C9.0625 13.9516 8.94397 13.6655 8.733 13.4545C8.52202 13.2435 8.23587 13.125 7.9375 13.125C7.63913 13.125 7.35298 13.2435 7.142 13.4545C6.93103 13.6655 6.8125 13.9516 6.8125 14.25Z" fill="#E5EAFF" stroke="#E4002B" stroke-linecap="round" stroke-linejoin="round"/>
<path d="M11.3125 12C11.3125 12.2984 11.431 12.5845 11.642 12.7955C11.853 13.0065 12.1391 13.125 12.4375 13.125C12.7359 13.125 13.022 13.0065 13.233 12.7955C13.444 12.5845 13.5625 12.2984 13.5625 12C13.5625 11.7016 13.444 11.4155 13.233 11.2045C13.022 10.9935 12.7359 10.875 12.4375 10.875C12.1391 10.875 11.853 10.9935 11.642 11.2045C11.431 11.4155 11.3125 11.7016 11.3125 12Z" fill="#E5EAFF" stroke="#E4002B" stroke-linecap="round" stroke-linejoin="round"/>
<path d="M15.8125 14.25C15.8125 14.5484 15.931 14.8345 16.142 15.0455C16.353 15.2565 16.6391 15.375 16.9375 15.375C17.2359 15.375 17.522 15.2565 17.733 15.0455C17.944 14.8345 18.0625 14.5484 18.0625 14.25C18.0625 13.9516 17.944 13.6655 17.733 13.4545C17.522 13.2435 17.2359 13.125 16.9375 13.125C16.6391 13.125 16.353 13.2435 16.142 13.4545C15.931 13.6655 15.8125 13.9516 15.8125 14.25Z" fill="#E5EAFF" stroke="#E4002B" stroke-linecap="round" stroke-linejoin="round"/>
<path d="M6.25 6.375H18.625" stroke="#E4002B" stroke-linecap="round" stroke-linejoin="round"/>
</svg>
