<svg width="40" height="40" viewBox="0 0 40 40" fill="none" xmlns="http://www.w3.org/2000/svg">
<path d="M24.13 4.74023V10.7302H30.75L24.13 4.74023Z" fill="#E5EAFF"/>
<path d="M38.3355 18.5764L34.6525 15.4196C34.3386 15.1498 33.9417 15 33.5263 15C33.1294 15 32.7417 15.1399 32.4278 15.3896C32.0771 15.6793 31.8463 16.0889 31.7817 16.5484H28.7632C27.794 16.5484 27.0001 17.3576 27.0001 18.3666V21.6234C27.0001 22.6224 27.794 23.4416 28.7632 23.4416H31.7817C31.8278 23.7912 31.9847 24.1309 32.2247 24.4106C32.5478 24.7802 33.0094 24.99 33.4986 25C33.9417 25 34.3386 24.8502 34.6617 24.5804L38.3632 21.4036C38.7509 21.0839 38.9909 20.5744 39.0001 20.025C38.9909 19.4456 38.7509 18.9261 38.3355 18.5764ZM37.4955 20.2148L33.7847 23.3916C33.7109 23.4515 33.6186 23.4915 33.5171 23.4915H33.5078C33.2955 23.4915 33.1386 23.3417 33.1386 23.1718V22.1728C33.1386 22.043 33.0094 21.9331 32.8617 21.9331H28.754C28.5417 21.9331 28.3755 21.7932 28.3755 21.6134V18.3566C28.3755 18.1868 28.5417 18.037 28.754 18.037H32.8617C33.0186 18.037 33.1386 17.9271 33.1386 17.7972V16.7982C33.1386 16.7083 33.1755 16.6284 33.2494 16.5684C33.3232 16.5085 33.4155 16.4785 33.5171 16.4785C33.6186 16.4785 33.7109 16.5085 33.7847 16.5784L37.4955 19.7552C37.5694 19.8152 37.6063 19.8951 37.6063 19.985C37.6063 20.0749 37.5694 20.1548 37.4955 20.2148Z" fill="#E4002B"/>
<path d="M11.2449 16.56H8.22407C8.17788 16.21 8.02086 15.87 7.78067 15.59C7.45735 15.22 6.99548 15.01 6.50587 15C6.49663 15 6.48737 15 6.47813 15C6.06243 15 5.65598 15.15 5.3419 15.42L1.63752 18.6C1.24953 18.92 1.00936 19.43 1.00012 19.98C1.00012 20.55 1.24031 21.07 1.65602 21.42L5.3419 24.58C5.65598 24.85 6.05318 25 6.46888 25C6.86611 25 7.25414 24.86 7.56822 24.61C7.91926 24.32 8.1502 23.91 8.21487 23.45H11.2356C12.2056 23.45 13 22.64 13 21.63V18.37C13.0093 17.37 12.2148 16.56 11.2449 16.56ZM11.6236 21.63C11.6236 21.8 11.4573 21.95 11.2449 21.95H7.13403C6.97698 21.95 6.85689 22.06 6.85689 22.19V23.19C6.85689 23.28 6.81992 23.36 6.74602 23.42C6.67212 23.48 6.57975 23.51 6.47813 23.51C6.37652 23.51 6.28415 23.48 6.21024 23.41L2.49662 20.23C2.42272 20.17 2.3858 20.09 2.3858 20C2.3858 19.92 2.43196 19.84 2.49662 19.78L6.21024 16.6C6.28415 16.54 6.37652 16.5 6.47813 16.5H6.48738C6.69985 16.5 6.86613 16.65 6.85689 16.82V17.82C6.85689 17.95 6.98622 18.06 7.13403 18.06H11.2449C11.4573 18.06 11.6236 18.2 11.6236 18.38V21.63Z" fill="#E4002B"/>
<path d="M31.2175 26C30.7897 26 30.4349 26.3452 30.4349 26.7614V34.4772H9.56534V26.7614C9.56534 26.3452 9.21056 26 8.78273 26C8.3549 26 8.00012 26.3452 8.00012 26.7614V35.2386C8.00012 35.6548 8.3549 36 8.78273 36H31.2175C31.6453 36 32.0001 35.6548 32.0001 35.2386V26.7614C32.0001 26.335 31.6558 26 31.2175 26Z" fill="#0F1E57"/>
<path d="M31.9896 10.7739C31.9896 10.5528 31.8853 10.3618 31.7392 10.2211C31.7392 10.2211 31.7392 10.2211 31.7392 10.2111L24.8344 4.19094C24.7718 4.13064 24.6884 4.09044 24.6154 4.06029C24.6154 4.06029 24.6154 4.06029 24.605 4.06029C24.5111 4.02009 24.4068 4 24.3129 4H8.78227C8.35463 4 8 4.34171 8 4.75377V13.2462C8 13.6583 8.35463 14 8.78227 14C9.20991 14 9.56454 13.6583 9.56454 13.2462V5.50754H23.5202V10.7638C23.5202 11.1759 23.8748 11.5176 24.3025 11.5176H30.4355V13.2362C30.4355 13.6482 30.7901 13.9899 31.2177 13.9899C31.6454 13.9899 32 13.6482 32 13.2362V10.7739C31.9896 10.7739 31.9896 10.7739 31.9896 10.7739ZM25.0847 6.45225L29.1734 10.0201H25.0847V6.45225Z" fill="#0F1E57"/>
<path d="M22.784 18H17.2268C16.5548 18 16.0001 18.5679 16.0001 19.2777V25H24V19.2777C24.0106 18.5788 23.4667 18 22.784 18Z" fill="#E5EAFF"/>
<path d="M20.0001 13C18.3668 13 17.0446 14.369 17.0446 16.0548V17.0618C15.9112 17.0957 15.0001 18.0461 15.0001 19.2228V25.1514C15.0001 25.6153 15.3779 26 15.8335 26H24.1668C24.6223 26 25.0001 25.6153 25.0001 25.1514V19.2228C25.0001 18.0461 24.089 17.0957 22.9557 17.0618V16.0548C22.9557 14.369 21.6335 13 20.0001 13ZM20.0001 14.6971C20.7112 14.6971 21.289 15.3081 21.289 16.0548V17.0618H18.7112V16.0548C18.7112 15.2968 19.289 14.6971 20.0001 14.6971ZM23.3335 19.2228V24.3029H16.6668V19.2228C16.6668 18.9626 16.8668 18.7476 17.1112 18.7476H22.9001C23.1335 18.7589 23.3335 18.9626 23.3335 19.2228Z" fill="#0F1E57"/>
</svg>
