<svg width="24" height="24" viewBox="0 0 24 24" fill="none" xmlns="http://www.w3.org/2000/svg">
<path d="M1 6.82373H15.8824V2.94138H3C1.89543 2.94138 1 3.83681 1 4.94138V6.82373Z" fill="var(--color-blue-light, #dbe2ff)"/>
<path d="M23 7H19V3H21C22.1046 3 23 3.89543 23 5V7Z" fill="var(--color-blue-light, #dbe2ff)"/>
<path d="M3 3.5C2.17157 3.5 1.5 4.17157 1.5 5V6.5H14C14.2761 6.5 14.5 6.72386 14.5 7C14.5 7.27614 14.2761 7.5 14 7.5H1.5V19C1.5 19.8284 2.17157 20.5 3 20.5H14.5294C14.8056 20.5 15.0294 20.7239 15.0294 21C15.0294 21.2761 14.8056 21.5 14.5294 21.5H3C1.61929 21.5 0.5 20.3807 0.5 19V5C0.5 3.61929 1.61929 2.5 3 2.5H14C14.2761 2.5 14.5 2.72386 14.5 3C14.5 3.27614 14.2761 3.5 14 3.5H3Z" fill="var(--color-N600, #0f1e57)"/>
<path d="M18.5 3C18.5 2.72386 18.7239 2.5 19 2.5H21C22.3807 2.5 23.5 3.61929 23.5 5V19C23.5 20.3807 22.3807 21.5 21 21.5H19C18.7239 21.5 18.5 21.2761 18.5 21C18.5 20.7239 18.7239 20.5 19 20.5H21C21.8284 20.5 22.5 19.8284 22.5 19V7.5H19C18.7239 7.5 18.5 7.27614 18.5 7C18.5 6.72386 18.7239 6.5 19 6.5H22.5V5C22.5 4.17157 21.8284 3.5 21 3.5H19C18.7239 3.5 18.5 3.27614 18.5 3Z" fill="var(--color-N600, #0f1e57)"/>
<path d="M4.97651 13.1998C4.31377 13.1998 3.77651 12.6625 3.77651 11.9998C3.77651 11.3371 4.31377 10.7998 4.97651 10.7998C5.63926 10.7998 6.17651 11.3371 6.17651 11.9998C6.17651 12.6625 5.63926 13.1998 4.97651 13.1998Z" fill="var(--color-brand, #e4002b)"/>
<path d="M11 11.1998C10.3372 11.1998 9.79995 10.6625 9.79995 9.9998C9.79995 9.33706 10.3372 8.7998 11 8.7998C11.6627 8.7998 12.2 9.33706 12.2 9.9998C12.2 10.6625 11.6627 11.1998 11 11.1998Z" fill="var(--color-brand, #e4002b)"/>
<path d="M12 18.1998C11.3372 18.1998 10.8 17.6625 10.8 16.9998C10.8 16.3371 11.3372 15.7998 12 15.7998C12.6627 15.7998 13.2 16.3371 13.2 16.9998C13.2 17.6625 12.6627 18.1998 12 18.1998Z" fill="var(--color-brand, #e4002b)"/>
<path fill-rule="evenodd" clip-rule="evenodd" d="M16 0.5C16.2761 0.5 16.5 0.723858 16.5 1V22C16.5 22.2761 16.2761 22.5 16 22.5C15.7239 22.5 15.5 22.2761 15.5 22V1C15.5 0.723858 15.7239 0.5 16 0.5Z" fill="var(--color-brand, #e4002b)"/>
</svg>
