<svg width="40" height="40" viewBox="0 0 40 40" fill="none" xmlns="http://www.w3.org/2000/svg">
<path d="M17.6637 26.6887L10.8215 33.531C9.61831 34.7341 7.67238 34.7341 6.46924 33.531C5.88337 32.9451 5.56949 32.1814 5.56949 31.3548C5.56949 30.5283 5.89383 29.7646 6.46924 29.1787L13.3114 22.3365C13.6148 22.0331 13.6148 21.531 13.3114 21.2276C13.008 20.9241 12.5058 20.9241 12.2024 21.2276L5.36025 28.0698C4.48144 28.9486 4.00018 30.1099 4.00018 31.3548C4.00018 32.5998 4.48144 33.7611 5.36025 34.6399C6.27045 35.5501 7.45266 36 8.64534 36C9.83801 36 11.0202 35.5501 11.9304 34.6399L18.7726 27.7977C19.076 27.4943 19.076 26.9922 18.7726 26.6887C18.4692 26.3853 17.9671 26.3853 17.6637 26.6887Z" fill="#E4002B"/>
<path d="M26.7419 21.4627L19.5295 14.2346L19.6819 13.6661C20.332 11.2297 19.6311 8.60035 17.8433 6.82378C16.0249 5.0066 13.4549 4.34672 11.0169 5.01675C10.6715 5.10811 10.3972 5.38222 10.3058 5.73754C10.2144 6.0827 10.316 6.45833 10.5699 6.71212L13.2923 9.4328C14.0847 10.2246 14.0847 11.5038 13.2923 12.2956C12.5102 13.0773 11.1997 13.0773 10.4277 12.2956L7.7053 9.57494C7.45134 9.32114 7.07547 9.21961 6.73009 9.31098C6.38471 9.40235 6.11045 9.67644 6.00887 10.0216C5.34858 12.4276 5.99871 15.0265 7.81705 16.8436C9.59474 18.6202 12.053 19.3715 15.2224 18.5289L22.445 25.757C21.6018 28.9243 22.3332 31.3608 24.1312 33.1577C25.9496 34.9748 28.5298 35.6347 30.9576 34.9647C31.303 34.8733 31.5772 34.5992 31.6687 34.2439C31.7601 33.8987 31.6585 33.5231 31.4046 33.2693L28.6821 30.5486C27.8898 29.7568 27.8898 28.4776 28.6821 27.6858C29.4745 26.9041 30.7747 26.9143 31.5468 27.6858L34.2692 30.4065C34.5231 30.6603 34.899 30.7618 35.2444 30.6705C35.5898 30.5791 35.864 30.305 35.9656 29.9598C36.6259 27.5538 35.9758 24.955 34.1574 23.1378C32.3696 21.3714 29.9011 20.61 26.7419 21.4627Z" fill="#E5EAFF"/>
<path d="M26.9754 20.62L20.3725 14.0111L20.4132 13.869C21.1344 11.1686 20.3522 8.26517 18.3815 6.29571C16.3803 4.28565 13.5462 3.5344 10.8136 4.28564C10.2041 4.44807 9.72663 4.93537 9.57426 5.54448C9.41172 6.15359 9.59457 6.80329 10.0314 7.24997L12.7538 9.97067C13.2414 10.4681 13.2414 11.26 12.7538 11.7574C12.2865 12.2244 11.4332 12.2244 10.966 11.7574L8.24354 9.03671C7.79657 8.59003 7.13628 8.41744 6.53694 8.57987C5.92744 8.7423 5.45002 9.21944 5.27732 9.82856C4.53577 12.5188 5.30778 15.4222 7.28864 17.3917C9.28982 19.3916 11.9513 20.0717 14.9988 19.3814L21.6118 26.0004C20.9211 29.0561 21.6017 31.7159 23.6028 33.7057C25.0961 35.198 27.0465 36 29.0781 36C29.7689 36 30.48 35.9086 31.1708 35.7157C31.7803 35.5533 32.2577 35.066 32.4202 34.4569C32.5828 33.8478 32.3999 33.1981 31.9631 32.7514L29.2509 30.0307C28.7633 29.5434 28.7531 28.7414 29.2509 28.2541C29.7385 27.7669 30.5613 27.7669 31.0387 28.2541L33.7611 30.9748C34.2081 31.4215 34.8684 31.5941 35.4677 31.4317C36.0772 31.2692 36.5546 30.7921 36.7273 30.183C37.4587 27.4928 36.6969 24.5893 34.716 22.6199C32.6843 20.6098 30.0229 19.9195 26.9754 20.62ZM35.2239 29.7668C35.2036 29.8581 35.1325 29.919 35.0512 29.9393C34.97 29.9596 34.8785 29.9393 34.8074 29.8784L32.085 27.1577C31.0184 26.0918 29.2102 26.0918 28.1436 27.1577C27.0567 28.244 27.0668 30.0104 28.1436 31.0967L30.866 33.8174C30.927 33.8783 30.9574 33.9696 30.927 34.061C30.9067 34.1422 30.8355 34.2133 30.7543 34.2336C28.5499 34.8325 26.2745 34.2336 24.6695 32.6194C22.9629 30.9139 22.455 28.6602 23.1863 25.9497C23.2575 25.6857 23.1864 25.4116 22.9933 25.2187L15.7708 17.9906C15.6286 17.8485 15.4356 17.7673 15.2324 17.7673C15.1715 17.7673 15.1004 17.7774 15.0394 17.7977C12.3272 18.5287 10.0822 18.0312 8.36543 16.3156C6.75026 14.7014 6.15094 12.4274 6.75027 10.2346C6.77059 10.1433 6.84169 10.0824 6.92296 10.0621C7.00423 10.0417 7.09564 10.062 7.16675 10.1229L9.88917 12.8436C10.4072 13.3614 11.1082 13.6558 11.8599 13.6558C12.6116 13.6558 13.3125 13.3715 13.8306 12.8436C14.9074 11.7574 14.9074 9.99097 13.8306 8.90473L11.1082 6.18403C11.0472 6.12312 11.0167 6.03176 11.0472 5.9404C11.0675 5.85918 11.1386 5.78812 11.2199 5.76782C13.4243 5.16886 15.6997 5.76781 17.3149 7.38195C18.9097 8.96564 19.5294 11.3107 18.9503 13.4934L18.798 14.0619C18.7269 14.3258 18.8081 14.5999 19.0011 14.7928L26.2135 22.0209C26.4065 22.2138 26.6808 22.2849 26.9449 22.2138C29.6572 21.4829 31.9022 21.9803 33.6189 23.696C35.2239 25.2999 35.8232 27.574 35.2239 29.7668Z" fill="#0F1E57"/>
<path d="M24.3008 14.5266L27.355 11.473C27.6502 11.1778 27.6502 10.6892 27.355 10.394L26.795 9.8342C26.6729 9.71205 26.6729 9.57974 26.6729 9.50849C26.6831 9.43724 26.7034 9.30491 26.8459 9.20313L31.7428 5.59989C31.9057 5.47774 32.1399 5.49809 32.2824 5.64059L34.3593 7.71705C34.5018 7.85956 34.5222 8.09365 34.4 8.2565L30.796 13.1525C30.6942 13.2848 30.5619 13.3153 30.4906 13.3255C30.4194 13.3357 30.2768 13.3255 30.1648 13.2034L29.6049 12.6435C29.4624 12.501 29.2689 12.4196 29.0653 12.4196C28.8617 12.4196 28.6683 12.501 28.5257 12.6435L25.4715 15.6971C25.1763 15.9923 25.1763 16.4809 25.4715 16.7761C25.6243 16.9288 25.8177 17 26.0111 17C26.2046 17 26.398 16.9288 26.5507 16.7761L29.0551 14.2721L29.0755 14.2925C29.4827 14.6894 30.0325 14.893 30.6026 14.8523C31.1727 14.8116 31.6818 14.5266 32.0177 14.0685L35.6217 9.17259C36.1918 8.38883 36.1103 7.33027 35.4282 6.64829L33.3514 4.57183C32.6693 3.88986 31.6003 3.80844 30.8266 4.37845L25.9297 7.98169C25.4715 8.31758 25.1865 8.83669 25.1458 9.4067C25.105 9.97671 25.3087 10.5264 25.7057 10.9335L25.7261 10.9539L23.2216 13.468C22.9264 13.7632 22.9264 14.2517 23.2216 14.5469C23.5169 14.8421 24.0055 14.8218 24.3008 14.5266Z" fill="#0F1E57"/>
</svg>
