<svg width="40" height="40" viewBox="0 0 40 40" fill="none" xmlns="http://www.w3.org/2000/svg">
<path fill-rule="evenodd" clip-rule="evenodd" d="M6.20016 21.7955L6.20103 21.8048C6.2084 21.8893 6.21069 21.9812 6.20466 22.0792C6.20466 22.0792 6.00018 26.9379 12.3139 31.1494C16.3043 33.8111 18.7399 35.4076 19.983 36.2162C21.2347 35.4113 23.6893 33.8156 27.6864 31.1494C34.0148 26.9279 33.7928 22.0916 33.7958 22.0915C33.7958 22.0915 33.796 22.0942 33.7964 22.0998C33.7887 21.994 33.7908 21.8951 33.7987 21.8048L33.7991 21.8006L33.7992 21.7991C33.8132 21.6443 34.5 14.0408 34.5 9.42775C34.5 8.64828 34.1886 8.24856 33.7175 7.97793C33.1521 7.65308 32.2747 7.49305 31.2733 7.57023C31.2754 7.57007 31.2371 7.57376 31.1318 7.59648C31.031 7.61822 30.9128 7.64748 30.7559 7.68673L30.7211 7.69543C30.4298 7.76834 30.0387 7.86624 29.625 7.93372C28.8163 8.06562 27.5361 8.1529 26.4317 7.37078L26.4278 7.36805L21.6428 4.00798C20.6967 3.34388 19.6321 3.3333 18.6886 3.96277L13.5318 7.40195C12.1863 8.4367 10.6741 8.30909 9.62873 8.09152C9.22119 8.00669 8.80531 7.88952 8.47245 7.79573C8.37937 7.76951 8.29278 7.74511 8.21469 7.72377C7.78753 7.607 7.59114 7.57469 7.5 7.57469C6.68022 7.57469 6.21693 7.81402 5.963 8.06441C5.70968 8.31418 5.5 8.73699 5.5 9.42775C5.5 11.7285 5.67159 14.7923 5.84702 17.3157C5.93437 18.572 6.02196 19.6847 6.08816 20.488C6.12125 20.8895 6.14897 21.2134 6.16861 21.439C6.17843 21.5518 6.18622 21.6399 6.19165 21.7008L6.19797 21.7713C6.19919 21.7848 6.19994 21.7931 6.20016 21.7955ZM12.6528 6.18514L17.8561 2.71499C19.3189 1.73902 21.0563 1.76357 22.5046 2.78029L27.2964 6.14514C28.1927 6.78171 29.4592 6.46487 30.3723 6.23646C30.6854 6.15814 30.9569 6.09021 31.1577 6.07469C33.5202 5.89251 36 6.74616 36 9.42775C36 14.1157 35.3073 21.7779 35.2932 21.9336L35.293 21.9355C35.2914 21.9539 35.2911 21.9723 35.2925 21.9907C35.2968 22.0467 35.6207 27.6597 28.5187 32.3972C23.3198 35.8652 20.7205 37.5287 19.9776 38C19.2419 37.526 16.6751 35.8615 11.4815 32.3972C4.40208 27.675 4.70349 22.0464 4.70725 21.9907C4.70859 21.9723 4.70832 21.9539 4.70671 21.9355C4.69946 21.8582 4 14.14 4 9.42775C4 7.41466 5.25954 6.07469 7.5 6.07469C7.89469 6.07469 8.38072 6.21147 8.91275 6.3612C10.0982 6.6948 11.512 7.09268 12.6528 6.18514Z" fill="#E4002B"/>
<path d="M29 20C29 24.9706 24.9706 29 20 29C15.0294 29 11 24.9706 11 20C11 15.0294 15.0294 11 20 11C24.9706 11 29 15.0294 29 20Z" fill="#E5EAFF"/>
<path fill-rule="evenodd" clip-rule="evenodd" d="M10.25 20C10.25 14.6152 14.6152 10.25 20 10.25C25.3848 10.25 29.75 14.6152 29.75 20C29.75 25.3848 25.3848 29.75 20 29.75C14.6152 29.75 10.25 25.3848 10.25 20ZM18.9601 12.2506C19.3416 11.8874 19.6918 11.75 20 11.75C20.3082 11.75 20.6584 11.8874 21.0399 12.2506C21.4254 12.6174 21.8066 13.1836 22.1431 13.9406C22.2891 14.2692 22.4239 14.6274 22.5455 15.0116C21.7416 15.1662 20.8877 15.25 20 15.25C19.1123 15.25 18.2584 15.1662 17.4545 15.0116C17.5761 14.6274 17.7109 14.2692 17.8569 13.9406C18.1934 13.1836 18.5746 12.6174 18.9601 12.2506ZM20 16.75C21.009 16.75 21.9881 16.6519 22.9161 16.4674C23.0865 17.3227 23.1981 18.2594 23.2358 19.25H16.7642C16.8019 18.2594 16.9135 17.3227 17.0839 16.4674C18.0119 16.6519 18.991 16.75 20 16.75ZM15.2632 19.25C15.3025 18.1387 15.4286 17.0754 15.6289 16.0949C14.8088 15.8352 14.0446 15.5037 13.3544 15.1105C12.4853 16.2898 11.9225 17.7088 11.7836 19.25H15.2632ZM11.7836 20.75H15.2632C15.3115 22.1149 15.4906 23.4074 15.7775 24.5631C14.9486 24.6929 14.1775 24.8602 13.4834 25.0599C12.541 23.8479 11.9293 22.3662 11.7836 20.75ZM28.2164 19.25C28.0775 17.7088 27.5147 16.2898 26.6456 15.1105C25.9554 15.5037 25.1912 15.8352 24.3711 16.0949C24.5714 17.0754 24.6975 18.1387 24.7368 19.25H28.2164ZM24.7368 20.75H28.2164C28.0707 22.3662 27.459 23.8479 26.5166 25.0599C25.8224 24.8602 25.0514 24.6929 24.2225 24.5631C24.5094 23.4074 24.6885 22.1149 24.7368 20.75ZM23.2358 20.75C23.1853 22.0775 23.0021 23.3083 22.7222 24.3759C21.8535 24.2936 20.9401 24.25 20 24.25C19.0598 24.25 18.1465 24.2936 17.2778 24.3759C16.9979 23.3083 16.8147 22.0775 16.7642 20.75H23.2358ZM16.4862 13.3314C16.3065 13.7359 16.1436 14.1732 15.9995 14.6384C15.4189 14.4497 14.876 14.2218 14.3789 13.9612C15.1403 13.2522 16.0359 12.6855 17.0234 12.3033C16.828 12.6205 16.6489 12.9654 16.4862 13.3314ZM24.0005 14.6384C24.5811 14.4497 25.124 14.2218 25.6211 13.9612C24.8597 13.2522 23.9641 12.6855 22.9766 12.3033C23.172 12.6205 23.3511 12.9654 23.5138 13.3314C23.6935 13.7359 23.8564 14.1732 24.0005 14.6384ZM14.6745 26.3011C15.1558 26.1901 15.6731 26.0933 16.2203 26.0131C16.3042 26.24 16.3929 26.4587 16.4862 26.6686C16.6489 27.0346 16.828 27.3795 17.0234 27.6967C16.1609 27.3629 15.3685 26.8883 14.6745 26.3011ZM17.7625 25.839C18.4767 25.7811 19.226 25.75 20 25.75C20.774 25.75 21.5233 25.7811 22.2375 25.839C22.2066 25.9139 22.1751 25.9873 22.1431 26.0594C21.8066 26.8164 21.4254 27.3826 21.0399 27.7494C20.6584 28.1126 20.3082 28.25 20 28.25C19.6918 28.25 19.3416 28.1126 18.9601 27.7494C18.5746 27.3826 18.1934 26.8164 17.8569 26.0594C17.8249 25.9873 17.7934 25.9139 17.7625 25.839ZM23.7797 26.0131C23.6958 26.24 23.6071 26.4587 23.5138 26.6686C23.3511 27.0346 23.172 27.3795 22.9766 27.6967C23.8391 27.3629 24.6315 26.8883 25.3255 26.3011C24.8442 26.1901 24.3269 26.0933 23.7797 26.0131Z" fill="#0F1E57"/>
</svg>
