<svg width="40" height="40" viewBox="0 0 40 40" fill="none" xmlns="http://www.w3.org/2000/svg">
<path d="M34.75 5H11.25C9.46 5 8 6.46 8 8.25V9.21001C8 9.62001 8.34 9.96001 8.75 9.96001C9.16 9.96001 9.5 9.62001 9.5 9.21001V8.25C9.5 7.29 10.29 6.5 11.25 6.5H34.75C35.71 6.5 36.5 7.29 36.5 8.25V24.75C36.5 25.71 35.71 26.5 34.75 26.5C34.34 26.5 34 26.84 34 27.25C34 27.66 34.34 28 34.75 28C36.54 28 38 26.54 38 24.75V8.25C38 6.46 36.54 5 34.75 5Z" fill="#E4002B"/>
<path d="M31.02 16.3501H3.02002V22.3501H31.02V16.3501Z" fill="#E5EAFF"/>
<path d="M28.75 35C30.54 35 32 33.54 32 31.75V15.25C32 13.46 30.54 12 28.75 12H5.25C3.46 12 2 13.46 2 15.25V31.75C2 33.54 3.46 35 5.25 35H28.75ZM3.5 17H30.5V21.57H3.5V17ZM5.25 13.5H28.75C29.71 13.5 30.5 14.29 30.5 15.25V15.5H3.5V15.25C3.5 14.29 4.28 13.5 5.25 13.5ZM3.5 31.75V23.06H30.5V31.75C30.5 32.71 29.71 33.5 28.75 33.5H5.25C4.28 33.5 3.5 32.72 3.5 31.75Z" fill="#0F1E57"/>
<path d="M20.5302 31H26.4698C27.3154 31 28 30.27 28 29.37V26.63C28 25.73 27.3154 25 26.4698 25H20.5302C19.6846 25 19 25.73 19 26.63V29.37C19 30.27 19.6846 31 20.5302 31ZM20.5101 26.64C20.5101 26.55 20.5503 26.51 20.5302 26.51L26.4396 26.5C26.4497 26.51 26.4899 26.55 26.4899 26.64V29.38C26.4899 29.45 26.4597 29.49 26.4497 29.51L20.5705 29.52C20.5604 29.51 20.5201 29.47 20.5201 29.38V26.64H20.5101Z" fill="#0F1E57"/>
</svg>
