<svg width="40" height="40" viewBox="0 0 40 40" fill="none" xmlns="http://www.w3.org/2000/svg">
<path d="M15.8808 18.3203C15.6651 17.9877 15.2243 17.8997 14.9054 18.1247L10.3098 21.3922C10.1223 21.5292 10.0003 21.7542 10.0003 21.9987C10.0003 22.2433 10.1129 22.4683 10.3098 22.6053L14.9054 25.8728C15.0273 25.9609 15.168 26 15.2993 26C15.5244 26 15.7495 25.8924 15.8808 25.6772C16.0965 25.3445 16.0121 24.8847 15.6932 24.6597L11.9511 21.9987L15.6932 19.3378C16.0121 19.1128 16.0965 18.653 15.8808 18.3203Z" fill="#E4002B"/>
<path d="M25.0952 18.1247C24.7763 17.8997 24.3355 17.9877 24.1198 18.3203C23.9041 18.653 23.9885 19.1128 24.3074 19.3378L28.0495 21.9987L24.3074 24.6597C23.9885 24.8847 23.9041 25.3445 24.1198 25.6772C24.2605 25.8826 24.4762 26 24.7013 26C24.842 26 24.9733 25.9609 25.0952 25.8728L29.6908 22.6053C29.8784 22.4683 30.0003 22.2433 30.0003 21.9987C30.0003 21.7542 29.8878 21.5292 29.6908 21.3922L25.0952 18.1247Z" fill="#E4002B"/>
<path d="M22.0779 18.0663C21.7176 17.9002 21.2795 18.0566 21.1042 18.4181L18.0664 24.9546C17.9009 25.3258 18.0566 25.7557 18.4169 25.9316C18.5143 25.9805 18.6214 26 18.7285 26C19.0011 26 19.264 25.8437 19.3906 25.5799L22.4284 19.0434C22.6036 18.6721 22.4478 18.2422 22.0779 18.0663Z" fill="#E4002B"/>
<path d="M32.2539 11H29.6673C29.2579 11 28.9183 11.3399 28.9183 11.7497C28.9183 12.1596 29.2579 12.4994 29.6673 12.4994H32.2539C32.883 12.4994 33.4023 13.0292 33.4023 13.669V29.073C33.4023 29.7228 32.893 30.2426 32.2539 30.2426H30.7659C30.3564 30.2426 30.0168 30.5825 30.0168 30.9923L30.0368 35.4906L26.2818 35.5006V31.0023C26.2818 30.5925 25.9423 30.2526 25.5328 30.2526H22.5168C22.1074 30.2526 21.7678 30.5925 21.7678 31.0023L21.7878 35.5006L18.0328 35.5106V31.0023C18.0328 30.5925 17.6933 30.2526 17.2838 30.2526H14.2678C13.8584 30.2526 13.5188 30.5925 13.5188 31.0023L13.5388 35.5006L9.78381 35.5106V31.0023C9.78381 30.5925 9.44426 30.2526 9.03481 30.2526H7.5468C6.91764 30.2526 6.39833 29.7228 6.39833 29.0831V13.679C6.39833 13.0292 6.90765 12.5094 7.5468 12.5094H10.0435C10.4529 12.5094 10.7925 12.1696 10.7925 11.7597C10.7925 11.3499 10.4529 11.01 10.0435 11.01H7.5468C6.08875 11.01 4.90033 12.2095 4.90033 13.679V29.0831C4.90033 30.5525 6.08875 31.752 7.5468 31.752H8.28581V35.5106C8.28581 36.3303 8.94491 37 9.76382 37H13.5388C14.3477 37 15.0168 36.3303 15.0168 35.5106V31.752H16.5348V35.5106C16.5348 36.3303 17.1939 37 18.0128 37H21.7878C22.5968 37 23.2658 36.3303 23.2658 35.5106V31.752H24.7838V35.5106C24.7838 36.3303 25.4429 37 26.2618 37H30.0368C30.8457 37 31.5149 36.3303 31.5149 35.5106V31.752H32.2539C33.7119 31.752 34.9003 30.5525 34.9003 29.0831V13.679C34.8903 12.1995 33.7119 11 32.2539 11Z" fill="#0F1E57"/>
<path d="M20.0004 3.7373C16.5344 3.7373 13.7286 6.55089 13.7286 10.0145C13.7286 13.4781 16.5441 16.282 20.0101 16.282C23.4761 16.282 26.282 13.4684 26.282 10.0048C26.2723 6.5412 23.4665 3.7373 20.0004 3.7373Z" fill="#E5EAFF"/>
<path d="M20.0003 17C20.0003 17 20.01 17 20.0003 17C21.8741 17 23.6314 16.2724 24.9518 14.9432C26.2722 13.6237 27.0003 11.8676 27.0003 9.99514C27.0003 6.13374 23.8547 3 20.0003 3C16.1362 3 13.0003 6.14345 13.0003 10.0049C13.0003 11.8773 13.7284 13.6334 15.0585 14.9529C16.3789 16.2821 18.1362 17 20.0003 17ZM16.078 6.08522C17.1265 5.03741 18.5149 4.46501 20.0003 4.4553C23.0586 4.4553 25.544 6.93901 25.544 9.99514C25.544 11.4796 24.9712 12.867 23.9227 13.9148C22.8741 14.9626 21.4858 15.535 20.0003 15.5447C18.5246 15.5447 17.1265 14.9723 16.078 13.9245C15.0294 12.8766 14.4566 11.4893 14.4469 10.0049C14.4372 8.52045 15.0294 7.13304 16.078 6.08522Z" fill="#0F1E57"/>
<path d="M17.0101 12.9737C17.1557 13.1193 17.3402 13.1872 17.5247 13.1872C17.7091 13.1872 17.8936 13.1193 18.0392 12.9737L20.0004 11.0333L21.9615 12.9737C22.1072 13.1193 22.2917 13.1872 22.4761 13.1872C22.6606 13.1872 22.8548 13.1193 22.9907 12.9737C23.2722 12.6924 23.2722 12.2267 22.981 11.9453L21.0295 10.0146L22.981 8.08392C23.2625 7.80256 23.2722 7.33685 22.9907 7.05549C22.7091 6.77413 22.2431 6.76443 21.9615 7.05549L20.0004 8.9959L18.0392 7.05549C17.7577 6.77413 17.2916 6.77413 17.0101 7.05549C16.7285 7.33685 16.7285 7.80256 17.0198 8.08392L18.9713 10.0146L17.0198 11.9453C16.7285 12.2267 16.7285 12.6827 17.0101 12.9737Z" fill="#0F1E57"/>
</svg>
