<svg width="40" height="40" viewBox="0 0 40 40" fill="none" xmlns="http://www.w3.org/2000/svg">
<path d="M35.7513 30.1105C35.906 29.853 35.9988 29.544 35.9988 29.2144C36.0091 28.72 35.8132 28.2257 35.4625 27.8652C35.1325 27.5253 34.689 27.3193 34.2249 27.2884L29.9345 27C29.9035 27 29.8416 27 29.8004 27C29.3259 27 28.8722 27.1854 28.5421 27.5047C28.1502 27.8961 27.9646 28.4213 28.0058 28.9569L28.2946 33.221C28.3565 34.1376 29.099 34.8998 30.0273 34.9925C30.0788 34.9925 30.151 35.0028 30.1923 35.0028C30.5223 35.0028 30.842 34.9204 31.1102 34.7556L33.802 37.4438C34.163 37.8043 34.6477 38 35.1428 38C35.6275 38 36.0813 37.8146 36.4217 37.4747L38.4741 35.4251C39.1857 34.7144 39.1754 33.5403 38.4431 32.809L35.7513 30.1105ZM37.3808 34.323L35.3284 36.3727C35.2769 36.4242 35.215 36.4447 35.1428 36.4447C35.0603 36.4447 34.9675 36.4035 34.8953 36.3418L31.3268 32.7781C31.2752 32.7266 31.203 32.6957 31.1411 32.6957C31.0896 32.6957 31.038 32.7163 31.0071 32.7472L30.3779 33.3755C30.3264 33.427 30.2645 33.4476 30.1923 33.4476C30.182 33.4476 30.1717 33.4476 30.1613 33.4476C29.9963 33.427 29.8416 33.2828 29.8313 33.118L29.5425 28.823C29.5322 28.7406 29.5632 28.6685 29.6147 28.6067C29.6663 28.5655 29.7282 28.5346 29.8004 28.5346C29.8107 28.5346 29.821 28.5346 29.8313 28.5346L34.1321 28.823C34.2146 28.8333 34.2971 28.8642 34.359 28.9363C34.4827 29.0702 34.493 29.2556 34.3899 29.3689L33.7608 29.9972C33.6783 30.0796 33.6886 30.2238 33.7814 30.3165L37.3499 33.8802C37.4737 34.0243 37.484 34.22 37.3808 34.323Z" fill="#E4002B"/>
<path d="M35.5669 19.4976C35.5366 19.4674 35.4963 19.4574 35.4661 19.4271L35.9195 18.9739C36.4938 18.3998 36.1613 17.4227 35.3653 17.322L34.1159 17.1508L33.1084 17.0098C32.4635 16.9191 31.9194 17.4731 32.0101 18.1077L32.3224 20.3639C32.4333 21.1596 33.4106 21.492 33.9749 20.9178L34.4283 20.4646C34.4484 20.4948 34.4686 20.5351 34.4988 20.5653L37.713 23.7784C37.8641 23.9295 38.0556 24 38.247 24C38.4385 24 38.6299 23.9295 38.781 23.7784C39.0732 23.4863 39.0732 23.0028 38.781 22.7107L35.5669 19.4976Z" fill="#E4002B"/>
<path d="M22.076 34.0049C22.0456 33.9744 22.0152 33.9643 21.9848 33.944L22.2785 33.65C22.7545 33.1734 22.4811 32.3521 21.8127 32.2608L20.7696 32.1188L19.929 32.0073C19.3923 31.9363 18.9366 32.3926 19.0075 32.93L19.2708 34.8161C19.3619 35.4853 20.1822 35.7591 20.6582 35.2825L20.9519 34.9884C20.9721 35.0189 20.9823 35.0493 21.0126 35.0797L23.7064 37.7769C23.8583 37.929 24.0508 38 24.2432 38C24.4356 38 24.628 37.929 24.7799 37.7769C25.0736 37.4829 25.0736 36.9961 24.7799 36.7021L22.076 34.0049Z" fill="#E4002B"/>
<path d="M20.137 12.0225H11.8735C10.1828 12.0225 8.8222 13.3974 8.8222 15.0834V23.2324C8.8222 23.704 9.20235 24.0954 9.68256 24.0954H22.338C22.8082 24.0954 23.1984 23.7141 23.1984 23.2324V15.0834C23.1884 13.3974 21.8178 12.0225 20.137 12.0225Z" fill="#E5EAFF"/>
<path d="M23.1883 4.55584C23.5385 4.77662 23.9987 4.67626 24.2188 4.32501C24.4389 3.97376 24.3388 3.51211 23.9887 3.29133C18.1262 -0.421885 10.3128 0.451227 5.4107 5.37876C0.458576 10.3464 -0.421793 17.9635 3.26979 23.9248C3.40985 24.1556 3.65995 24.276 3.91006 24.276C4.04011 24.276 4.18016 24.2359 4.30022 24.1656C4.65037 23.9448 4.76043 23.4832 4.54033 23.1319C1.21891 17.7729 2.01926 10.9185 6.47117 6.45258C10.8931 2.00676 17.9161 1.22398 23.1883 4.55584Z" fill="#0F1E57"/>
<path d="M27.6601 7.78733C27.3099 8.00811 27.1999 8.46976 27.42 8.82101C30.7714 14.1901 30.0011 21.0646 25.5292 25.5505C21.0873 30.0064 14.0243 30.7791 8.74199 27.3871C8.39184 27.1663 7.93162 27.2666 7.70152 27.6179C7.48143 27.9691 7.58148 28.4308 7.93163 28.6616C10.3827 30.2372 13.1739 30.9999 15.9651 30.9999C19.8468 30.9999 23.7184 29.5046 26.5896 26.6244C31.5618 21.6366 32.4222 13.9894 28.7006 8.02819C28.4805 7.67694 28.0102 7.56654 27.6601 7.78733Z" fill="#0F1E57"/>
<path d="M15.9951 5C13.5452 5 11.549 7.03703 11.549 9.53703V11.1111C9.57296 11.2654 8.00018 12.9321 8.00018 14.9897V23.3436C8.00018 24.2593 8.72607 25 9.62336 25H22.377C23.2743 25 24.0002 24.2593 24.0002 23.3436V14.9897C24.0002 12.9321 22.4274 11.2551 20.4514 11.1111V9.53703C20.4413 7.03703 18.445 5 15.9951 5ZM15.9951 6.54321C17.6082 6.54321 18.929 7.89094 18.929 9.53703V11.0802H13.0613V9.53703C13.0512 7.89094 14.3719 6.54321 15.9951 6.54321ZM22.4778 15V23.3539C22.4778 23.4156 22.4274 23.4671 22.3669 23.4671H9.61329C9.5528 23.4671 9.50238 23.4156 9.50238 23.3539V15C9.50238 13.6934 10.5408 12.6338 11.8212 12.6338H20.1489C21.4394 12.6235 22.4778 13.6934 22.4778 15Z" fill="#0F1E57"/>
<path d="M16.0345 15.0132C15.0679 15.0132 14.2845 15.8047 14.2845 16.7812C14.2845 17.4801 14.6915 18.0763 15.2714 18.3641V21.2423C15.2714 21.6637 15.6173 22.0132 16.0345 22.0132C16.4516 22.0132 16.7976 21.6637 16.7976 21.2423V18.3641C17.3775 18.0763 17.7845 17.4801 17.7845 16.7812C17.7845 15.8047 17.001 15.0132 16.0345 15.0132Z" fill="#0F1E57"/>
</svg>
