<svg width="40" height="40" viewBox="0 0 40 40" fill="none" xmlns="http://www.w3.org/2000/svg">
<path d="M30.799 21H25.1908C22.8762 21 21 22.8864 21 25.201V30.8092C21 33.1238 22.8864 35 25.1908 35H25.925C26.343 35 26.6897 34.6533 26.6897 34.2353C26.6897 33.8172 26.343 33.4705 25.925 33.4705H25.1908C23.7225 33.4705 22.5295 32.2775 22.5295 30.8092V25.201C22.5295 23.7327 23.7225 22.5295 25.1908 22.5295H30.799C32.2673 22.5295 33.4705 23.7225 33.4705 25.201V25.9658C33.4705 26.3838 33.8172 26.7305 34.2353 26.7305C34.6533 26.7305 35 26.3838 35 25.9658V25.201C35 22.8864 33.1136 21 30.799 21Z" fill="#E4002B"/>
<path d="M14.8122 5.76416H9.20812C7.31293 5.76416 5.77438 7.30273 5.77438 9.19793V14.802C5.77438 16.6972 7.31293 18.2358 9.20812 18.2358H14.8122C16.7074 18.2358 18.246 16.6972 18.246 14.802V9.19793C18.2358 7.29254 16.6972 5.76416 14.8122 5.76416Z" fill="#E5EAFF"/>
<path d="M14.8021 5H9.19798C6.88503 5 5 6.88501 5 9.19796V14.802C5 17.115 6.88503 19 9.19798 19H14.8021C17.115 19 19 17.115 19 14.802V9.19796C19 6.87482 17.115 5 14.8021 5ZM17.4716 14.7919C17.4716 16.2591 16.2795 17.4614 14.8021 17.4614H9.19798C7.73073 17.4614 6.52838 16.2693 6.52838 14.7919V9.18777C6.52838 7.72052 7.72054 6.5182 9.19798 6.5182H14.8021C16.2693 6.5182 17.4716 7.71033 17.4716 9.18777V14.7919Z" fill="#0F1E57"/>
<path d="M14.8021 21H9.19798C6.88503 21 5 22.8864 5 25.2011V30.8092C5 33.1239 6.88503 35 9.19798 35H14.8021C17.115 35 19 33.1137 19 30.8092V25.2011C19 22.8864 17.115 21 14.8021 21ZM17.4716 30.8092C17.4716 32.2775 16.2795 33.4705 14.8021 33.4705H9.19798C7.73073 33.4705 6.52839 32.2775 6.52839 30.8092V25.2011C6.52839 23.7327 7.72055 22.5295 9.19798 22.5295H14.8021C16.2693 22.5295 17.4716 23.7225 17.4716 25.2011V30.8092Z" fill="#0F1E57"/>
<path d="M35 14.802V9.19796C35 6.88501 33.1136 5 30.799 5H25.1908C22.8761 5 21 6.88501 21 9.19796V14.802C21 17.115 22.8863 19 25.1908 19H30.799C33.1136 19 35 17.115 35 14.802ZM22.5295 14.802V9.19796C22.5295 7.73071 23.7225 6.52838 25.1908 6.52838H30.799C32.2673 6.52838 33.4705 7.72052 33.4705 9.19796V14.802C33.4705 16.2693 32.2775 17.4716 30.799 17.4716H25.1908C23.7225 17.4716 22.5295 16.2693 22.5295 14.802Z" fill="#0F1E57"/>
<path d="M36.34 31.37C36.58 31.07 36.72 30.69 36.73 30.28C36.74 29.78 36.54 29.28 36.19 28.92C35.86 28.57 35.41 28.37 34.94 28.34L29.92 28C29.89 28 29.82 28 29.79 28C29.31 28 28.87 28.18 28.53 28.51C28.14 28.9 27.95 29.42 28 29.96L28.34 34.96C28.4 35.89 29.15 36.66 30.08 36.74C30.13 36.74 30.2 36.75 30.25 36.75C30.66 36.75 31.05 36.62 31.37 36.37L33.5 38.5C33.86 38.86 34.35 39.07 34.85 39.07C35.33 39.07 35.79 38.88 36.13 38.54L38.53 36.14C38.9 35.77 39.09 35.25 39.05 34.72C39.01 34.27 38.82 33.84 38.49 33.52L36.34 31.37ZM37.44 35.07L35.04 37.47C34.98 37.53 34.9 37.56 34.82 37.56C34.72 37.56 34.61 37.52 34.53 37.43L31.56 34.46C31.5 34.4 31.42 34.37 31.34 34.37C31.28 34.37 31.22 34.39 31.18 34.43L30.45 35.16C30.39 35.22 30.32 35.25 30.23 35.25C30.22 35.25 30.21 35.25 30.2 35.25C30 35.23 29.83 35.06 29.82 34.86L29.48 29.83C29.47 29.73 29.5 29.64 29.57 29.58C29.63 29.53 29.7 29.5 29.78 29.5C29.79 29.5 29.8 29.5 29.81 29.5L34.84 29.84C34.94 29.85 35.04 29.89 35.11 29.97C35.26 30.12 35.27 30.35 35.14 30.48L34.4 31.22C34.3 31.32 34.32 31.49 34.43 31.6L37.4 34.57C37.56 34.71 37.57 34.94 37.44 35.07Z" fill="#0F1E57"/>
</svg>
