<svg width="24" height="24" viewBox="0 0 24 24" fill="none" xmlns="http://www.w3.org/2000/svg">
<path fill-rule="evenodd" clip-rule="evenodd" d="M8 1C5.79086 1 4 2.79086 4 5V19H20V5C20 2.79086 18.2091 1 16 1H8ZM17.2305 5.92598C17.2818 5.98091 17.3195 6.04604 17.341 6.11662C17.378 6.32828 18.0442 10.9143 16.3416 13.2073C15.3113 14.6069 13.8091 15.6278 12.085 16.1H11.8999C10.1758 15.6278 8.67353 14.6069 7.6433 13.2073C6.08149 11.1039 6.54404 7.01185 6.63125 6.24041C6.63911 6.17085 6.64392 6.12829 6.64392 6.11662C6.64392 5.97551 6.75496 5.86968 6.94003 5.79913L11.8629 4H12.085L17.0448 5.79913C17.1159 5.82772 17.1793 5.87105 17.2305 5.92598Z" fill="var(--color-blue-light, #dbe2ff)"/>
<path fill-rule="evenodd" clip-rule="evenodd" d="M5.06095 4.3954C5.34069 3.02835 6.55025 2 8 2H16C17.6569 2 19 3.34315 19 5V18H5V5C5 4.79289 5.02099 4.59069 5.06095 4.3954ZM5 19C5 20.6569 6.34315 22 8 22H16C17.6569 22 19 20.6569 19 19H5ZM20 19V5C20 2.79086 18.2091 1 16 1H8C6.067 1 4.45425 2.37113 4.08127 4.19386C4.02798 4.45425 4 4.72386 4 5V19C4 21.2091 5.79086 23 8 23H16C18.2091 23 20 21.2091 20 19Z" fill="var(--color-N600, #0f1e57)"/>
<path fill-rule="evenodd" clip-rule="evenodd" d="M11.6912 3.53038C11.7462 3.51028 11.8043 3.5 11.8629 3.5H12.085C12.1431 3.5 12.2008 3.51014 12.2555 3.52997L17.2153 5.32909C17.2208 5.33106 17.2262 5.33313 17.2315 5.33529C17.3691 5.39067 17.494 5.47541 17.5962 5.58495C17.6984 5.69453 17.7753 5.82624 17.8193 5.97116C17.8253 5.99063 17.83 6.01044 17.8335 6.03049C17.8565 6.16226 18.0362 7.39591 17.9934 8.89571C17.9513 10.3726 17.6917 12.227 16.7436 13.5045C15.6447 14.9971 14.046 16.0813 12.217 16.5822C12.174 16.594 12.1296 16.6 12.085 16.6H11.8999C11.8553 16.6 11.8109 16.594 11.7678 16.5822C9.93893 16.0814 8.34026 14.9971 7.2413 13.5046C6.29178 12.2252 6.04266 10.3507 6.00528 8.86759C5.98621 8.111 6.02196 7.42575 6.06223 6.92179C6.08239 6.66941 6.10374 6.46189 6.12 6.31336C6.12546 6.2634 6.13051 6.21877 6.13457 6.18279C6.13645 6.16619 6.13812 6.15144 6.13952 6.13884C6.14251 6.11209 6.14375 6.09916 6.14419 6.09525C6.15553 5.64548 6.52374 5.42273 6.76192 5.33192L6.76838 5.32946L6.7684 5.3295L11.6912 3.53038ZM11.9514 4.5L7.13206 6.26129C7.13077 6.27283 7.12939 6.28503 7.12792 6.298C7.12395 6.33309 7.11935 6.37379 7.11406 6.42216C7.09851 6.56426 7.07821 6.76159 7.05905 7.00144C7.02066 7.48192 6.98702 8.13059 7.00496 8.84239C7.0416 10.2958 7.29208 11.8956 8.04473 12.9092L8.04598 12.9109C8.99481 14.1999 10.3762 15.1491 11.9682 15.6H12.0167C13.6087 15.1491 14.9901 14.1999 15.9389 12.9109L15.9401 12.9092C16.6942 11.8937 16.9527 10.3091 16.9938 8.86719C17.0301 7.59727 16.8963 6.53083 16.8577 6.26311L11.9971 4.5H11.9514Z" fill="var(--color-brand, #e4002b)"/>
<path fill-rule="evenodd" clip-rule="evenodd" d="M11.8236 5.73236C11.9375 5.68941 12.0631 5.68948 12.177 5.73253L15.2039 6.87743C15.2104 6.8799 15.2169 6.8825 15.2233 6.88524C15.3349 6.93288 15.4341 7.00489 15.5139 7.09564C15.5936 7.18633 15.6521 7.29353 15.6853 7.40933C15.6906 7.42789 15.6948 7.44674 15.698 7.46579C15.7131 7.55772 15.8221 8.35329 15.7961 9.32002C15.7707 10.2634 15.6155 11.4872 15.0152 12.3453C14.3322 13.3291 13.3356 14.0478 12.1905 14.3803C12.1452 14.3935 12.0983 14.4002 12.0511 14.4002H11.94C11.8928 14.4002 11.8459 14.3935 11.8005 14.3803C10.6552 14.0477 9.65835 13.3287 8.97529 12.3445C8.37422 11.4846 8.22577 10.2477 8.20329 9.30162C8.19168 8.81328 8.21344 8.37161 8.23787 8.0473C8.25011 7.88477 8.26307 7.75114 8.27293 7.65563C8.27624 7.62358 8.27933 7.59455 8.28178 7.57154C8.28289 7.56111 8.28387 7.55192 8.28468 7.54424C8.28571 7.53448 8.28638 7.52771 8.2868 7.52337C8.29882 7.14311 8.59816 6.95372 8.77666 6.88155L8.78761 6.87712L8.78766 6.87725L11.8236 5.73236ZM9.14884 7.80979C9.14869 7.80987 9.14862 7.80991 9.14863 7.80991C9.14864 7.80992 9.1489 7.80982 9.14939 7.80959L9.14884 7.80979ZM9.26693 7.76526C9.2578 7.85412 9.2461 7.9756 9.23504 8.12242C9.21228 8.42457 9.1924 8.83175 9.203 9.27786C9.22492 10.2 9.37611 11.1734 9.79565 11.7726L9.79682 11.7743L9.79682 11.7743C10.3332 12.5472 11.1071 13.1163 11.9955 13.3947C12.8839 13.1163 13.6579 12.5472 14.1943 11.7743L14.1954 11.7726C14.6162 11.1716 14.7719 10.2071 14.7964 9.29313C14.8083 8.85036 14.7892 8.44538 14.7655 8.14275C14.7537 7.99176 14.7409 7.86722 14.7305 7.77735C14.7301 7.77387 14.7297 7.77044 14.7293 7.76707L11.9998 6.73467L9.26693 7.76526Z" fill="var(--color-N600, #0f1e57)"/>
</svg>
