<svg width="24" height="24" viewBox="0 0 24 24" fill="none" xmlns="http://www.w3.org/2000/svg">
<path fill-rule="evenodd" clip-rule="evenodd" d="M11.9826 2.2998C6.81714 2.2998 2.59442 6.33764 2.2991 11.4288C2.28311 11.7044 2.04667 11.915 1.77099 11.899C1.49531 11.883 1.28479 11.6465 1.30078 11.3708C1.6266 5.75392 6.28426 1.2998 11.9826 1.2998C15.2651 1.2998 18.2028 2.77853 20.1648 5.10439C20.3428 5.31546 20.3161 5.63091 20.105 5.80897C19.8939 5.98702 19.5785 5.96025 19.4004 5.74918C17.6203 3.63893 14.9581 2.2998 11.9826 2.2998ZM22.1826 11.4998C22.4587 11.4998 22.6826 11.7237 22.6826 11.9998C22.6826 17.9093 17.892 22.6998 11.9826 22.6998C8.28739 22.6998 5.02996 20.8262 3.10821 17.9796C2.9537 17.7507 3.01399 17.4399 3.24286 17.2854C3.47173 17.1309 3.78252 17.1912 3.93703 17.42C5.68079 20.0031 8.63363 21.6998 11.9826 21.6998C17.3398 21.6998 21.6826 17.357 21.6826 11.9998C21.6826 11.7237 21.9064 11.4998 22.1826 11.4998Z" fill="var(--color-N600, #0f1e57)"/>
<path d="M21.6 9.6002C22.2628 9.6002 22.8 9.06294 22.8 8.4002C22.8 7.73745 22.2628 7.2002 21.6 7.2002C20.9373 7.2002 20.4 7.73745 20.4 8.4002C20.4 9.06294 20.9373 9.6002 21.6 9.6002Z" fill="var(--color-brand, #e4002b)"/>
<path d="M2.39995 15.6002C3.06269 15.6002 3.59995 15.0629 3.59995 14.4002C3.59995 13.7375 3.06269 13.2002 2.39995 13.2002C1.73721 13.2002 1.19995 13.7375 1.19995 14.4002C1.19995 15.0629 1.73721 15.6002 2.39995 15.6002Z" fill="var(--color-brand, #e4002b)"/>
<path d="M8.5 10C8.5 8.067 10.067 6.5 12 6.5V6.5C13.933 6.5 15.5 8.067 15.5 10V15C15.5 16.933 13.933 18.5 12 18.5V18.5C10.067 18.5 8.5 16.933 8.5 15V10Z" fill="var(--color-N200, #e6e9f3)"/>
<path fill-rule="evenodd" clip-rule="evenodd" d="M6.50005 9.2002H6.5623C6.95733 6.66557 9.18852 4.5 12 4.5C14.8116 4.5 17.0428 6.66557 17.4378 9.2002H17.5C18.7151 9.2002 19.7 10.1852 19.7 11.4002V12.6002C19.7 13.8152 18.7151 14.8002 17.5 14.8002C17.2982 14.8002 17.1103 14.7404 16.9531 14.6375C16.5828 15.2253 16.0276 15.6715 15.3809 15.9087C14.9808 17.4011 13.6187 18.5 12 18.5C11.6562 18.5 11.324 18.4504 11.01 18.358C9.55916 17.931 8.50005 16.5892 8.50005 15V10C8.50005 8.067 10.067 6.5 12 6.5C13.933 6.5 15.5 8.067 15.5 10V14.732C15.8786 14.4752 16.1739 14.0973 16.3257 13.6418C16.3591 13.5415 16.5 13.2638 16.5 13V9.99513C16.4973 7.66018 14.522 5.5 12 5.5C9.47812 5.5 7.5029 7.66005 7.50005 9.99493V13.8002C7.50005 14.3525 7.05233 14.8002 6.50005 14.8002C5.28502 14.8002 4.30005 13.8152 4.30005 12.6002V11.4002C4.30005 10.1852 5.28502 9.2002 6.50005 9.2002ZM12 17.5C10.6193 17.5 9.50005 16.3807 9.50005 15V10C9.50005 8.61929 10.6193 7.5 12 7.5C13.3808 7.5 14.5 8.61929 14.5 10V15C14.5 15.0305 14.4995 15.0608 14.4984 15.091C14.4338 15.0969 14.3685 15.0999 14.3027 15.0999H11.4C11.1239 15.0999 10.9 15.3238 10.9 15.5999C10.9 15.8761 11.1239 16.0999 11.4 16.0999H14.2457C13.8388 16.9292 12.9861 17.5 12 17.5ZM5.50005 10.7366C5.37368 10.9267 5.30005 11.1548 5.30005 11.4002V12.6002C5.30005 12.8455 5.37368 13.0737 5.50005 13.2638C5.71503 13.5871 6.08265 13.8002 6.50005 13.8002V10.2002C6.08265 10.2002 5.71503 10.4133 5.50005 10.7366ZM18.7 11.4002C18.7 11.1548 18.6264 10.9267 18.5 10.7366C18.2851 10.4133 17.9174 10.2002 17.5 10.2002V13.8002C17.9174 13.8002 18.2851 13.5871 18.5 13.2638C18.6264 13.0737 18.7 12.8455 18.7 12.6002V11.4002Z" fill="var(--color-N600, #0f1e57)"/>
</svg>
