<svg fill="#4f73ff" viewBox="0 0 32 32" xmlns="http://www.w3.org/2000/svg">
<path fill-rule="evenodd" clip-rule="evenodd" d="M12.15 8.6C12.15 6.4737 13.8737 4.75 16 4.75C18.1263 4.75 19.85 6.4737 19.85 8.6C19.85 9.01652 19.7842 9.51331 19.6528 10.0512C19.5545 10.4536 19.801 10.8594 20.2034 10.9577C20.6058 11.056 21.0117 10.8095 21.11 10.4072C21.2625 9.78266 21.35 9.16376 21.35 8.6C21.35 5.64528 18.9547 3.25 16 3.25C13.0453 3.25 10.65 5.64528 10.65 8.6C10.65 10.0321 11.2165 11.8877 12.1018 13.3845C12.5483 14.1395 13.0975 14.8405 13.7358 15.3606C14.3747 15.8812 15.1419 16.25 16 16.25H17C17.4142 16.25 17.75 15.9142 17.75 15.5C17.75 15.0858 17.4142 14.75 17 14.75H16C15.5879 14.75 15.1449 14.5739 14.6832 14.1977C14.2208 13.8209 13.7788 13.2733 13.3929 12.6209C12.6133 11.3028 12.15 9.70841 12.15 8.6ZM10.25 7C10.25 6.58579 9.91421 6.25 9.5 6.25C9.08579 6.25 8.75 6.58579 8.75 7V10C8.75 10.4142 9.08579 10.75 9.5 10.75C9.91421 10.75 10.25 10.4142 10.25 10V7ZM4.25 26.8689C4.25 22.1216 8.0332 18.25 12.7283 18.25H19.249C23.9567 18.25 27.75 22.1319 27.75 26.8919C27.75 27.353 27.3794 27.75 26.8938 27.75H5.12881C4.63077 27.75 4.25 27.3427 4.25 26.8689ZM5.77595 26.25H26.2222C25.9037 22.5959 22.8921 19.75 19.249 19.75H12.7283C9.0901 19.75 6.0837 22.5976 5.77595 26.25ZM23.2619 6.9796C23.2619 6.56539 22.9261 6.2296 22.5119 6.2296C22.0976 6.2296 21.7619 6.56539 21.7619 6.9796V8.9796C21.7619 10.454 21.6369 12.0413 19.9946 12.1906C19.3507 12.2491 18.2729 12.25 16 12.25C15.5858 12.25 15.25 12.5858 15.25 13C15.25 13.4142 15.5858 13.75 16 13.75H16.0863C18.2575 13.75 19.4088 13.75 20.1304 13.6844C22.6088 13.4591 23.2619 11.4568 23.2619 8.9796V6.9796Z" />
</svg>
